<svg xmlns="http://www.w3.org/2000/svg" width="1045.5" height="145.003" viewBox="0 0 1045.5 145.003">
  <g id="admin-logo" transform="translate(-100.5 -75)">
    <path id="Subtraction_4" data-name="Subtraction 4" d="M-518-7323.5a73.028,73.028,0,0,1-14.612-1.473,72.334,72.334,0,0,1-13.609-4.226,72.587,72.587,0,0,1-12.315-6.685,72.95,72.95,0,0,1-10.73-8.854,73.022,73.022,0,0,1-8.853-10.729,72.523,72.523,0,0,1-6.684-12.315,72.115,72.115,0,0,1-4.224-13.61A73.028,73.028,0,0,1-590.5-7396a73.042,73.042,0,0,1,1.473-14.611,72.161,72.161,0,0,1,4.224-13.609,72.467,72.467,0,0,1,6.684-12.314,72.88,72.88,0,0,1,8.853-10.731,72.98,72.98,0,0,1,10.73-8.854,72.653,72.653,0,0,1,12.315-6.685,72.191,72.191,0,0,1,13.609-4.226A73.136,73.136,0,0,1-518-7468.5a73.133,73.133,0,0,1,14.611,1.473,72.188,72.188,0,0,1,13.609,4.226,72.652,72.652,0,0,1,12.315,6.685,73.016,73.016,0,0,1,10.73,8.854,72.87,72.87,0,0,1,8.853,10.731,72.43,72.43,0,0,1,6.684,12.314,72.168,72.168,0,0,1,4.225,13.609A73.038,73.038,0,0,1-445.5-7396a73.023,73.023,0,0,1-1.473,14.611,72.135,72.135,0,0,1-4.225,13.61,72.48,72.48,0,0,1-6.684,12.315,73.017,73.017,0,0,1-8.853,10.729,72.927,72.927,0,0,1-10.73,8.854,72.517,72.517,0,0,1-12.315,6.685,72.332,72.332,0,0,1-13.609,4.226A73.026,73.026,0,0,1-518-7323.5Zm-7.7-53.822h0c.006.1.633,9.869.5,12.327a72.1,72.1,0,0,1-2.218,12.344l0,.012c-.165.686-.32,1.33-.468,1.966h15.534l-.007-.026c-.234-.986-2.29-9.721-2.383-12.7a58.108,58.108,0,0,1,1-9.051l5.388-5.576a12.833,12.833,0,0,0,7.282,2.226,12.887,12.887,0,0,0,12.849-11.584A12.979,12.979,0,0,0-479.8-7399.5a12.9,12.9,0,0,0-3.248-8.546,12.853,12.853,0,0,0,.857-4.6,12.879,12.879,0,0,0-11.57-12.849,12.969,12.969,0,0,0-12.105-8.434,12.9,12.9,0,0,0-6.641,1.851,12.939,12.939,0,0,0-11.283-6.632,12.849,12.849,0,0,0-12.74,10.864,12.465,12.465,0,0,0-1.6-.109,12.935,12.935,0,0,0-12.92,12.919c0,.336.023.654.052,1.034a12.864,12.864,0,0,0-6.026,10.916,12.87,12.87,0,0,0,4.815,10.054c0,.074-.009.149-.014.226-.011.153-.021.313-.021.475a12.935,12.935,0,0,0,12.92,12.919,12.773,12.773,0,0,0,5.927-1.448c2.283,1.641,5.386,3.6,7.2,3.6a2.028,2.028,0,0,0,.487-.057Zm9.85.274h0a.955.955,0,0,1-.792-.368c-.409-.521-.492-1.589-.256-3.264.2-1.444.606-3.082.962-4.526l0-.013c.086-.35.167-.68.242-.994a12.836,12.836,0,0,0,1.818-.836,12.83,12.83,0,0,0,3.21,6.942,13.128,13.128,0,0,1-4.68,2.982A1.961,1.961,0,0,1-515.851-7377.046Zm-5.185-2.654c-1.317,0-3.458-3.86-5.022-7.1a12.758,12.758,0,0,0,5.857,1.414,12.434,12.434,0,0,0,1.6-.111c-.39,2.52-1.109,5.564-2.321,5.786A.7.7,0,0,1-521.036-7379.7Zm-4.746-1.338c-.639,0-2.09-.255-4.625-1.954a12.949,12.949,0,0,0,2.568-3.427l2.536,5.314A1.363,1.363,0,0,1-525.782-7381.038Z" transform="translate(691 7543.501)" fill="#fff"/>
    <path id="Path_272" data-name="Path 272" d="M9.36,0H28.08V-33.12h35.4V-50.4H28.08V-67.68H66.36V-84.96h-57ZM114.12,0h16.56V-29.64c0-19.44-5.64-30.12-26.64-30.12-9.48,0-19.08,3.12-25.68,9.36l9.6,9.84c3.84-4.32,8.76-6.96,14.64-6.96,6.24,0,11.52,4.08,11.52,10.44-15,0-39.48.36-39.48,20.52,0,11.76,9.84,18,20.76,18,7.32,0,14.52-2.52,18.48-8.76h.24Zm0-25.56v3.84c0,7.2-6.6,10.92-13.68,10.92-3.96,0-8.52-2.04-8.52-6.36,0-7.92,12.24-8.4,17.76-8.4ZM141.96,0h18V-29.04c0-7.56,1.44-14.88,10.8-14.88,8.28,0,8.04,8.76,8.04,13.08V0h18V-30.84c0-7.2,2.64-13.08,10.92-13.08,5.88,0,7.92,4.56,7.92,9.96V0h18V-34.44c0-14.16-4.8-25.32-20.64-25.32-8.64,0-14.28,3-18.48,10.44-3.12-7.08-9.84-10.44-18-10.44-8.76,0-14.64,4.8-17.04,9.36h-.24v-7.92H141.96ZM246.6,0h18V-58.32h-18Zm-1.44-76.68A10.447,10.447,0,0,0,255.6-66.24a10.447,10.447,0,0,0,10.44-10.44A10.447,10.447,0,0,0,255.6-87.12,10.447,10.447,0,0,0,245.16-76.68ZM277.8,0h18V-90.72h-18Zm90.96-58.32H350.28L337.44-19.8h-.24l-15-38.52H302.76L328.32.48,327,3.84c-2.52,6.36-3.84,9.84-12,9.84a20.333,20.333,0,0,1-8.4-1.8l-2.4,14.76a42.584,42.584,0,0,0,13.44,2.16c17.16,0,19.92-6.96,24.72-19.32Z" transform="translate(278 190)" fill="#fff"/>
    <path id="Path_273" data-name="Path 273" d="M25.08,0H43.8V-68.4H68.04V-84.96H.84V-68.4H25.08ZM64.2,0h18V-24.36c0-11.64,1.68-19.56,15.36-19.56a27.731,27.731,0,0,1,7.68,1.2V-59.16a23.667,23.667,0,0,0-6-.6c-7.92,0-12.96,3.72-16.8,10.8H82.2v-9.36h-18Zm89.28-19.32c-3,4.08-6.96,7.08-12.84,7.08-6.96,0-12.12-4.44-13.56-11.28h41.76v-5.64c0-18.6-10.56-30.6-27.36-30.6-18,0-32.4,12-32.4,30.6s14.4,30.6,32.4,30.6c9.36,0,18.84-4.2,24.6-11.52Zm-26.4-16.44c.48-5.64,4.8-11.04,12.72-11.04a10.788,10.788,0,0,1,11.04,11.04Zm95.28,16.44c-3,4.08-6.96,7.08-12.84,7.08-6.96,0-12.12-4.44-13.56-11.28h41.76v-5.64c0-18.6-10.56-30.6-27.36-30.6-18,0-32.4,12-32.4,30.6s14.4,30.6,32.4,30.6c9.36,0,18.84-4.2,24.6-11.52Zm-26.4-16.44c.48-5.64,4.8-11.04,12.72-11.04a10.788,10.788,0,0,1,11.04,11.04Z" transform="translate(672 190)" fill="#fff"/>
    <path id="Path_274" data-name="Path 274" d="M25.92-35.88h4.2c8.04,0,16.8.24,16.8,9.84,0,6.36-3.72,10.92-11.52,10.92-7.68,0-11.4-3.84-12.6-9.84L3.84-20.52C7.32-5.28,19.2,1.44,34.32,1.44,51,1.44,64.92-6.96,64.92-24c0-9.84-5.76-18.48-15.96-19.8v-.36c9.36-1.92,14.52-9.24,14.52-18.6,0-16.32-13.56-23.64-28.68-23.64C20.4-86.4,8.28-80.76,4.56-66l19.8,4.08a10.393,10.393,0,0,1,10.56-7.92c5.88,0,10.56,3.72,10.56,8.88,0,8.04-7.08,9.48-13.68,9.48H25.92ZM125.4-84.96H103.44L84.84-55.92c-5.4,8.52-10.2,15.96-10.2,28.2,0,17.52,13.92,29.16,31.68,29.16S138-10.2,138-27.72c0-15.48-10.68-27.72-26.64-27.72a23.987,23.987,0,0,0-5.88.84ZM120-28.44c0,7.68-5.64,13.32-13.68,13.32S92.64-20.76,92.64-28.44s5.64-13.32,13.68-13.32S120-36.12,120-28.44Zm84.12-56.52H152.76l-.96,46.92a55.715,55.715,0,0,1,17.64-3.12c9.36,0,19.56,2.88,19.56,14.04,0,7.32-4.92,12.72-12.6,12.72-6.24,0-10.68-4.08-11.64-10.2l-18.84,4.32c3.72,14.4,14.04,21.72,28.68,21.72,18.6,0,32.4-11.16,32.4-30.36C207-46.32,194.76-57,177.6-57a22.272,22.272,0,0,0-7.56.96l.36-13.08h33.72Z" transform="translate(939 190)" fill="#fff"/>
  </g>
</svg>
