<svg xmlns="http://www.w3.org/2000/svg" width="19.478" height="14.588" viewBox="0 0 19.478 14.588"><defs><style>.a{fill:#4fcf8d;}</style></defs><g transform="translate(0 -64.267)"><path class="a" d="M11.692,71.461a1.92,1.92,0,0,0,1.91,0h0l8.669-5.779a2.1,2.1,0,0,0-1.984-1.415H5.007a2.1,2.1,0,0,0-1.984,1.415l8.669,5.779h0Z" transform="translate(-2.908)"/><path class="a" d="M11.327,140.928h0a3.054,3.054,0,0,1-3.176,0h0L0,135.494v9.78a2.1,2.1,0,0,0,2.1,2.1H17.38a2.1,2.1,0,0,0,2.1-2.1v-9.78Z" transform="translate(0 -68.517)"/></g></svg>