<svg xmlns="http://www.w3.org/2000/svg" width="63" height="63" viewBox="0 0 63 63">
  <g id="families" transform="translate(-676 -228)">
    <circle id="Ellipse_61" data-name="Ellipse 61" cx="31.5" cy="31.5" r="31.5" transform="translate(676 228)" fill="#f45b15" opacity="0.15"/>
    <path id="users" d="M5.357,42.714a3.571,3.571,0,1,0-3.571-3.571A3.575,3.575,0,0,0,5.357,42.714Zm25,0a3.571,3.571,0,1,0-3.571-3.571A3.575,3.575,0,0,0,30.357,42.714ZM32.143,44.5H28.571a3.561,3.561,0,0,0-2.517,1.038,8.163,8.163,0,0,1,4.191,6.1h3.683a1.784,1.784,0,0,0,1.786-1.786V48.071A3.575,3.575,0,0,0,32.143,44.5Zm-14.286,0a6.25,6.25,0,1,0-6.25-6.25A6.247,6.247,0,0,0,17.857,44.5Zm4.286,1.786H21.68a8.629,8.629,0,0,1-7.645,0h-.463a6.43,6.43,0,0,0-6.429,6.429v1.607A2.679,2.679,0,0,0,9.821,57H25.893a2.679,2.679,0,0,0,2.679-2.679V52.714A6.43,6.43,0,0,0,22.143,46.286ZM9.66,45.538A3.561,3.561,0,0,0,7.143,44.5H3.571A3.575,3.575,0,0,0,0,48.071v1.786a1.784,1.784,0,0,0,1.786,1.786H5.463a8.183,8.183,0,0,1,4.2-6.1Z" transform="translate(690 215)" fill="#f45b15"/>
  </g>
</svg>
