<svg xmlns="http://www.w3.org/2000/svg" xmlns:xlink="http://www.w3.org/1999/xlink" width="123" height="130" viewBox="0 0 123 130">
  <defs>
    <clipPath id="clip-favicon">
      <rect width="123" height="130"/>
    </clipPath>
  </defs>
  <g id="favicon" clip-path="url(#clip-favicon)">
    <path id="Subtraction_5" data-name="Subtraction 5" d="M-535-7357.5a55.925,55.925,0,0,1-11.185-1.127,55.373,55.373,0,0,1-10.418-3.235,55.582,55.582,0,0,1-9.428-5.117,55.857,55.857,0,0,1-8.214-6.777,55.923,55.923,0,0,1-6.777-8.214,55.532,55.532,0,0,1-5.117-9.427,55.2,55.2,0,0,1-3.234-10.419A55.9,55.9,0,0,1-590.5-7413a55.914,55.914,0,0,1,1.128-11.185,55.244,55.244,0,0,1,3.234-10.418,55.466,55.466,0,0,1,5.117-9.426,55.751,55.751,0,0,1,6.777-8.215,55.86,55.86,0,0,1,8.214-6.778,55.651,55.651,0,0,1,9.428-5.117,55.3,55.3,0,0,1,10.418-3.235A56,56,0,0,1-535-7468.5a55.994,55.994,0,0,1,11.185,1.127,55.3,55.3,0,0,1,10.418,3.235,55.648,55.648,0,0,1,9.427,5.117,55.875,55.875,0,0,1,8.214,6.778,55.747,55.747,0,0,1,6.777,8.215,55.438,55.438,0,0,1,5.117,9.426,55.251,55.251,0,0,1,3.234,10.418A55.912,55.912,0,0,1-479.5-7413a55.9,55.9,0,0,1-1.127,11.185,55.219,55.219,0,0,1-3.234,10.419,55.493,55.493,0,0,1-5.117,9.427,55.917,55.917,0,0,1-6.777,8.214,55.844,55.844,0,0,1-8.214,6.777,55.513,55.513,0,0,1-9.427,5.117,55.37,55.37,0,0,1-10.418,3.235A55.923,55.923,0,0,1-535-7357.5Zm-5.9-41.2h0c0,.075.484,7.555.381,9.437a55.191,55.191,0,0,1-1.7,9.45l0,.009c-.126.525-.245,1.019-.359,1.5h11.891l-.005-.02a83.157,83.157,0,0,1-1.824-9.724,44.483,44.483,0,0,1,.762-6.929l4.125-4.269a9.823,9.823,0,0,0,5.574,1.7,9.865,9.865,0,0,0,9.836-8.868,9.936,9.936,0,0,0,6.457-9.276,9.876,9.876,0,0,0-2.486-6.542,9.837,9.837,0,0,0,.656-3.519,9.859,9.859,0,0,0-8.857-9.836,9.928,9.928,0,0,0-9.267-6.457,9.871,9.871,0,0,0-5.084,1.417,9.9,9.9,0,0,0-8.637-5.077,9.836,9.836,0,0,0-9.753,8.317,9.576,9.576,0,0,0-1.223-.083,9.9,9.9,0,0,0-9.891,9.89c0,.257.017.5.04.792a9.848,9.848,0,0,0-4.613,8.356,9.852,9.852,0,0,0,3.686,7.7c0,.057-.007.114-.011.173-.008.117-.016.239-.016.363a9.9,9.9,0,0,0,9.891,9.89,9.775,9.775,0,0,0,4.537-1.108c1.748,1.256,4.123,2.752,5.514,2.752a1.57,1.57,0,0,0,.373-.043Zm7.54.209h0a.731.731,0,0,1-.606-.282,3.612,3.612,0,0,1-.2-2.5c.156-1.105.464-2.359.736-3.464l0-.01c.066-.268.128-.521.185-.761a9.8,9.8,0,0,0,1.392-.64,9.822,9.822,0,0,0,2.457,5.314,10.056,10.056,0,0,1-3.582,2.283A1.5,1.5,0,0,1-533.355-7398.49Zm-3.969-2.031c-1.008,0-2.647-2.955-3.844-5.435a9.767,9.767,0,0,0,4.484,1.083,9.471,9.471,0,0,0,1.224-.085c-.3,1.929-.849,4.26-1.777,4.43A.549.549,0,0,1-537.324-7400.521Zm-3.633-1.024a6.921,6.921,0,0,1-3.54-1.5,9.909,9.909,0,0,0,1.966-2.623l1.942,4.068A1.045,1.045,0,0,1-540.958-7401.546Z" transform="translate(596.5 7477.5)" fill="#4fcf8d"/>
  </g>
</svg>
