<svg xmlns="http://www.w3.org/2000/svg" width="63" height="63" viewBox="0 0 63 63">
  <g id="gedcom" transform="translate(-316 -228)">
    <circle id="Ellipse_62" data-name="Ellipse 62" cx="31.5" cy="31.5" r="31.5" transform="translate(316 228)" fill="#fb913a" opacity="0.15"/>
    <path id="download" d="M10.146,24.05H13.9a1.125,1.125,0,0,0,1.127-1.127V15.031h4.12a.938.938,0,0,0,.662-1.6L12.669,6.28a.91.91,0,0,0-1.282,0L4.232,13.43a.938.938,0,0,0,.662,1.6H9.019v7.891A1.125,1.125,0,0,0,10.146,24.05ZM24.05,6.388V1.127A1.125,1.125,0,0,0,22.923,0H1.127A1.125,1.125,0,0,0,0,1.127V6.388A1.125,1.125,0,0,0,1.127,7.516H8.018l2.3-2.3a2.407,2.407,0,0,1,3.41,0l2.3,2.3h6.891A1.125,1.125,0,0,0,24.05,6.388ZM18.226,2.255a.939.939,0,1,1-.939-.939A.942.942,0,0,1,18.226,2.255Zm3.006,0a.939.939,0,1,1-.939-.939A.942.942,0,0,1,21.232,2.255Z" transform="translate(335 247)" fill="#fb913a"/>
  </g>
</svg>
