<svg xmlns="http://www.w3.org/2000/svg" width="100" height="100" viewBox="0 0 100 100">
  <g id="gimport" transform="translate(-951 -1307)">
    <circle id="Ellipse_9" data-name="Ellipse 9" cx="50" cy="50" r="50" transform="translate(951 1307)" fill="#e5f8ee"/>
    <g id="_825301" data-name="825301" transform="translate(980 1333)">
      <g id="Group_12" data-name="Group 12">
        <path id="Path_17" data-name="Path 17" d="M72.481,36.517l-19.687,11.3a1.407,1.407,0,0,1-1.4,0l-19.688-11.3A1.407,1.407,0,0,1,31,35.3V12.7a1.406,1.406,0,0,1,.706-1.22L51.394.186a1.407,1.407,0,0,1,1.4,0l19.688,11.3a1.406,1.406,0,0,1,.706,1.22V35.3A1.406,1.406,0,0,1,72.481,36.517Zm-17.106-24.7H48.813a1.406,1.406,0,0,0,0,2.813h6.563a1.406,1.406,0,0,0,0-2.812Zm5.613,13.636a1.406,1.406,0,0,0-1.28-.823H56.781V17.906A1.406,1.406,0,0,0,55.375,16.5H48.813a1.406,1.406,0,0,0-1.406,1.406v6.719H44.479a1.406,1.406,0,0,0-1.061,2.329l7.615,8.75a1.406,1.406,0,0,0,2.122,0l7.615-8.75A1.406,1.406,0,0,0,60.988,25.448Z" transform="translate(-31 0)" fill="#4fcf8d"/>
      </g>
    </g>
  </g>
</svg>
