<svg xmlns="http://www.w3.org/2000/svg" width="100" height="100" viewBox="0 0 100 100">
  <g id="import" transform="translate(-517 -981)">
    <circle id="Ellipse_4" data-name="Ellipse 4" cx="50" cy="50" r="50" transform="translate(517 981)" fill="#e5f8ee"/>
    <g id="_2879360" data-name="2879360" transform="translate(547 1007)">
      <path id="Path_11" data-name="Path 11" d="M10.58,25.268,7.95,22.639a2.547,2.547,0,0,1,0-3.595L20.895,6.1,17.4,2.6A1.524,1.524,0,0,1,18.477,0H31.694a1.526,1.526,0,0,1,1.525,1.525V14.742a1.524,1.524,0,0,1-2.6,1.078l-3.5-3.5L14.174,25.268a2.547,2.547,0,0,1-3.595,0Z" transform="translate(3.315)" fill="#4fcf8d"/>
      <path id="Path_12" data-name="Path 12" d="M18.742,37.219H5.525A1.526,1.526,0,0,1,4,35.694V22.477A1.524,1.524,0,0,1,6.6,21.4l3.5,3.5L23.044,11.95a2.547,2.547,0,0,1,3.595,0l2.629,2.629a2.547,2.547,0,0,1,0,3.595L16.324,31.119l3.5,3.5a1.524,1.524,0,0,1-1.08,2.6Z" transform="translate(0 11.581)" fill="#4fcf8d"/>
    </g>
  </g>
</svg>
