<svg xmlns="http://www.w3.org/2000/svg" width="12.6" height="21" viewBox="0 0 12.6 21"><defs><style>.a{fill:#4fcf8d;}</style></defs><g transform="translate(-73.09)"><path class="a" d="M85.066.623A2.017,2.017,0,0,0,83.59,0h-8.4a2.018,2.018,0,0,0-1.477.623A2.018,2.018,0,0,0,73.09,2.1V18.9a2.13,2.13,0,0,0,2.1,2.1h8.4a2.13,2.13,0,0,0,2.1-2.1V2.1A2.017,2.017,0,0,0,85.066.623ZM78.078,2.1H80.7a.232.232,0,0,1,.262.263.232.232,0,0,1-.262.263H78.078a.232.232,0,0,1-.262-.263A.232.232,0,0,1,78.078,2.1Zm2.24,17.727A1.307,1.307,0,1,1,80.7,18.9,1.265,1.265,0,0,1,80.317,19.827Zm3.8-3.552a.532.532,0,0,1-.525.525h-8.4a.532.532,0,0,1-.525-.525V4.725A.532.532,0,0,1,75.19,4.2h8.4a.532.532,0,0,1,.525.525v11.55h0Z"/></g></svg>