<svg xmlns="http://www.w3.org/2000/svg" width="63" height="63" viewBox="0 0 63 63">
  <g id="peoples" transform="translate(-1037 -228)">
    <circle id="Ellipse_60" data-name="Ellipse 60" cx="31.5" cy="31.5" r="31.5" transform="translate(1037 228)" fill="#4fcf8d" opacity="0.15"/>
    <path id="dna" d="M0,25.09a.81.81,0,0,0,.807.9L2.445,26a.817.817,0,0,0,.813-.706c.036-.249.091-.564.173-.919H19.289c.081.35.147.67.178.919a.812.812,0,0,0,.813.706l1.64-.005a.807.807,0,0,0,.807-.9,16.645,16.645,0,0,0-6.038-10.547,26.441,26.441,0,0,1-2.971,1.8c.315.234.579.477.863.721H8.1a19.65,19.65,0,0,1,4-2.61C20.838,10.11,22.443,3.34,22.737.908A.81.81,0,0,0,21.93,0L20.284,0A.817.817,0,0,0,19.472.7c-.036.249-.091.564-.173.919H3.435C3.354,1.268,3.3.959,3.262.7A.812.812,0,0,0,2.45,0L.809,0A.814.814,0,0,0,0,.908C.261,3.086,1.586,8.723,8.117,13,1.592,17.275.261,22.912,0,25.09Zm11.37-13.94A19.344,19.344,0,0,1,8.1,8.937h6.526a18.8,18.8,0,0,1-3.26,2.214Zm6.658-6.277A14.316,14.316,0,0,1,16.958,6.5H5.781A13.057,13.057,0,0,1,4.715,4.874ZM4.71,21.124A14.316,14.316,0,0,1,5.776,19.5H16.918a13.8,13.8,0,0,1,1.077,1.625Z" transform="translate(1057.008 246.001)" fill="#4fcf8d"/>
  </g>
</svg>
