<svg xmlns="http://www.w3.org/2000/svg" width="100" height="100" viewBox="0 0 100 100">
  <g id="Group_202" data-name="Group 202" transform="translate(-83 -981)">
    <circle id="Ellipse_2" data-name="Ellipse 2" cx="50" cy="50" r="50" transform="translate(83 981)" fill="#e5f8ee"/>
    <path id="_95454" data-name="95454" d="M54.571,6.718a1.569,1.569,0,0,0-1.133-1.3L34.145.058a1.568,1.568,0,0,0-.841,0L14.012,5.423a1.569,1.569,0,0,0-1.133,1.3c-.112.8-2.665,19.816,3.883,29.273A30.8,30.8,0,0,0,33.356,47.957a1.573,1.573,0,0,0,.737,0A30.8,30.8,0,0,0,50.688,35.991C57.235,26.534,54.683,7.523,54.571,6.718Zm-8.4,11.1L33.007,30.976a1.568,1.568,0,0,1-2.218,0L22.652,22.84a1.568,1.568,0,0,1,0-2.218l1.615-1.615a1.569,1.569,0,0,1,2.218,0L31.9,24.418,42.332,13.983a1.568,1.568,0,0,1,2.218,0L46.166,15.6A1.569,1.569,0,0,1,46.166,17.817Z" transform="translate(99.704 1007)" fill="#4fcf8d"/>
  </g>
</svg>
