<svg xmlns="http://www.w3.org/2000/svg" xmlns:xlink="http://www.w3.org/1999/xlink" width="851.254" height="818.954" viewBox="0 0 851.254 818.954">
  <defs>
    <clipPath id="clip-path">
      <path id="blob" d="M757.553,230.711c64.189,165.9,28.68,365.687-110.623,458.447-139.986,92.76-384.45,78.489-536.045-23.19S-98.752,375.8-40.709,217.035C17.334,58.868,191.463-69.569,360.812-67.785S693.365,64.814,757.553,230.711Z" transform="translate(-71.159 1713.537)" fill="#e5f8ee"/>
    </clipPath>
  </defs>
  <g id="Group_203" data-name="Group 203" transform="translate(134 -1645.734)">
    <g id="Mask_Group_4" data-name="Mask Group 4" clip-path="url(#clip-path)">
      <rect id="Rectangle_98" data-name="Rectangle 98" width="729" height="819" transform="translate(0 1646)" fill="#e5f8ee"/>
    </g>
    <g id="Group_110" data-name="Group 110">
      <g id="Group_93" data-name="Group 93" transform="translate(12)">
        <g id="Group_89" data-name="Group 89" transform="translate(-109 1651)">
          <path id="Path_37" data-name="Path 37" d="M2712.372,2254.2v140.242s-1.869,71.491-86.883,68.641-97.13,45.157-97.13,84.771v61.677s-2.614,30.179-40.781,30.179c-7.067-.283-29.967,0-29.967,0s-20.67-2.26-20.072,18.659c.283,9.895,0,15.266,0,15.266" transform="translate(-2229.104 -2099.7)" fill="none" stroke="#011109" stroke-linecap="round" stroke-width="4" stroke-dasharray="3 14"/>
          <path id="Path_40" data-name="Path 40" d="M2690.768,2668.191V2533.259s-.051-67.626-86.883-68.641-96.675-54.834-96.675-94.449" transform="translate(-2023.808 -2099.568)" fill="none" stroke="#011109" stroke-linecap="round" stroke-width="4" stroke-dasharray="3 14"/>
          <path id="Path_39" data-name="Path 39" d="M2596.742,2586.154V2572.09s-1.871-16.2-21.747-16.2h-35.447s-32.837-.965-32.837-34.472" transform="translate(-2207.513 -2016.595)" fill="none" stroke="#011109" stroke-linecap="round" stroke-width="4" stroke-dasharray="3 14"/>
          <path id="blob-2" data-name="blob" d="M48.717-21.186c8.728,25.907,3.9,57.107-15.043,71.592C14.639,64.891-18.6,62.663-39.217,46.784S-67.724,1.471-59.832-23.322c7.893-24.7,31.571-44.757,54.6-44.478S39.989-47.093,48.717-21.186Z" transform="translate(672.069 642.824)" fill="#4fcf8d"/>
          <path id="blob-3" data-name="blob" d="M48.717-21.186c8.728,25.907,3.9,57.107-15.043,71.592C14.639,64.891-18.6,62.663-39.217,46.784S-67.724,1.471-59.832-23.322c7.893-24.7,31.571-44.757,54.6-44.478S39.989-47.093,48.717-21.186Z" transform="translate(761.29 455.197)" fill="#4fcf8d"/>
          <path id="blob-4" data-name="blob" d="M48.717-21.186c8.728,25.907,3.9,57.107-15.043,71.592C14.639,64.891-18.6,62.663-39.217,46.784S-67.724,1.471-59.832-23.322c7.893-24.7,31.571-44.757,54.6-44.478S39.989-47.093,48.717-21.186Z" transform="translate(578.911 455.197)" fill="#4fcf8d"/>
          <path id="blob-5" data-name="blob" d="M48.717-21.186c8.728,25.907,3.9,57.107-15.043,71.592C14.639,64.891-18.6,62.663-39.217,46.784S-67.724,1.471-59.832-23.322c7.893-24.7,31.571-44.757,54.6-44.478S39.989-47.093,48.717-21.186Z" transform="translate(397.844 455.197)" fill="#4fcf8d"/>
          <path id="blob-6" data-name="blob" d="M48.717-21.186c8.728,25.907,3.9,57.107-15.043,71.592C14.639,64.891-18.6,62.663-39.217,46.784S-67.724,1.471-59.832-23.322c7.893-24.7,31.571-44.757,54.6-44.478S39.989-47.093,48.717-21.186Z" transform="translate(397.844 271.506)" fill="#4fcf8d"/>
          <path id="blob-7" data-name="blob" d="M48.717-21.186c8.728,25.907,3.9,57.107-15.043,71.592C14.639,64.891-18.6,62.663-39.217,46.784S-67.724,1.471-59.832-23.322c7.893-24.7,31.571-44.757,54.6-44.478S39.989-47.093,48.717-21.186Z" transform="translate(578.911 271.506)" fill="#4fcf8d"/>
          <path id="blob-8" data-name="blob" d="M48.717-21.186c8.728,25.907,3.9,57.107-15.043,71.592C14.639,64.891-18.6,62.663-39.217,46.784S-67.724,1.471-59.832-23.322c7.893-24.7,31.571-44.757,54.6-44.478S39.989-47.093,48.717-21.186Z" transform="translate(212.841 455.197)" fill="#4fcf8d"/>
          <path id="blob-9" data-name="blob" d="M48.717-21.186c8.728,25.907,3.9,57.107-15.043,71.592C14.639,64.891-18.6,62.663-39.217,46.784S-67.724,1.471-59.832-23.322c7.893-24.7,31.571-44.757,54.6-44.478S39.989-47.093,48.717-21.186Z" transform="translate(213.136 642.824)" fill="#4fcf8d"/>
          <path id="blob-10" data-name="blob" d="M48.717-21.186c8.728,25.907,3.9,57.107-15.043,71.592C14.639,64.891-18.6,62.663-39.217,46.784S-67.724,1.471-59.832-23.322c7.893-24.7,31.571-44.757,54.6-44.478S39.989-47.093,48.717-21.186Z" transform="translate(393.908 642.824)" fill="#4fcf8d"/>
          <g id="Group_67" data-name="Group 67" transform="translate(180.009 599.951)">
            <path id="Path_70" data-name="Path 70" d="M176.364,99.491v9.46a13.9,13.9,0,0,1-13.9,13.9h0a13.9,13.9,0,0,1-13.9-13.9V98.969s-.783-5.48,3.915-7.438C152.485,91.531,160.575,99.491,176.364,99.491Z" transform="translate(-134.651 -78.752)" fill="none" stroke="#011109" stroke-miterlimit="10" stroke-width="1.5"/>
            <path id="Path_71" data-name="Path 71" d="M142.971,125.021h-.7a3.828,3.828,0,0,0-3.828,3.828h0a3.828,3.828,0,0,0,3.828,3.828h1.67" transform="translate(-129.052 -97.366)" fill="none" stroke="#011109" stroke-miterlimit="10" stroke-width="1.5"/>
            <path id="Path_72" data-name="Path 72" d="M210.019,125.021h.7a3.828,3.828,0,0,1,3.828,3.828h0a3.828,3.828,0,0,1-3.828,3.828h-1.67" transform="translate(-168.291 -97.366)" fill="none" stroke="#011109" stroke-miterlimit="10" stroke-width="1.5"/>
            <path id="Path_73" data-name="Path 73" d="M162.34,156.634V162.5a7.818,7.818,0,0,0,7.819,7.819h0a7.818,7.818,0,0,0,7.819-7.819v-5.868" transform="translate(-142.332 -114.937)" fill="none" stroke="#011109" stroke-miterlimit="10" stroke-width="1.5"/>
            <g id="Group_48" data-name="Group 48" transform="translate(0 47.565)">
              <path id="Path_74" data-name="Path 74" d="M137.3,169.845l-12.415,7.168a11.132,11.132,0,0,0-5.455,8.073L117.3,200.13" transform="translate(-117.295 -169.845)" fill="none" stroke="#011109" stroke-linecap="round" stroke-miterlimit="10" stroke-width="1.5"/>
              <path id="Path_75" data-name="Path 75" d="M197.543,169.845l12.415,7.168a11.132,11.132,0,0,1,5.455,8.073l2.139,15.044" transform="translate(-161.898 -169.845)" fill="none" stroke="#011109" stroke-linecap="round" stroke-miterlimit="10" stroke-width="1.5"/>
            </g>
            <path id="Path_76" data-name="Path 76" d="M141.505,90.788a101.878,101.878,0,0,1-1.494-13.421c-.087-5.654,5.307-7.481,5.307-7.481s2-8.7,13.919-6.872,16.123,9.341,16.935,13.761-2.749,13.8-2.749,13.8l-1.079-.156-.711-1V83.5s-7.849-.057-12.426-1.813a111.638,111.638,0,0,1-11.862-5.961s-3.424,2.109-3.466,5.1-.041,8.737-.041,8.737l-.7.848Z" transform="translate(-129.921 -62.762)" fill="#011109"/>
            <g id="Group_84" data-name="Group 84" transform="translate(18.094 20.5)">
              <g id="Group_49" data-name="Group 49" transform="translate(1.879 2.849)">
                <ellipse id="Ellipse_39" data-name="Ellipse 39" cx="1.566" cy="1.566" rx="1.566" ry="1.566" transform="translate(0)" fill="#011109"/>
                <ellipse id="Ellipse_40" data-name="Ellipse 40" cx="1.566" cy="1.566" rx="1.566" ry="1.566" transform="translate(12.505)" fill="#011109"/>
              </g>
              <path id="Path_77" data-name="Path 77" d="M160.229,133.6s2.53,3.6,8.744,3.6,8.7-3.6,8.7-3.6" transform="translate(-159.253 -122.633)" fill="none" stroke="#011109" stroke-linecap="round" stroke-miterlimit="10" stroke-width="1.5"/>
              <path id="Path_78" data-name="Path 78" d="M179.942,127.379s2.012-1,2.1-1.935a8.815,8.815,0,0,0-1.049-3.067" transform="translate(-170.209 -116.397)" fill="none" stroke="#011109" stroke-linecap="round" stroke-miterlimit="10" stroke-width="1.5"/>
              <path id="Path_79" data-name="Path 79" d="M163.773,110.131a4.085,4.085,0,0,0-5.742,0" transform="translate(-158.031 -108.913)" fill="none" stroke="#011109" stroke-linecap="round" stroke-miterlimit="10" stroke-width="1.5"/>
              <path id="Path_80" data-name="Path 80" d="M191,110.131a4.085,4.085,0,0,1,5.742,0" transform="translate(-176.356 -108.913)" fill="none" stroke="#011109" stroke-linecap="round" stroke-miterlimit="10" stroke-width="1.5"/>
            </g>
            <path id="Path_81" data-name="Path 81" d="M171.647,159.816l-9.308,1.948v-3.74s.342-.348,1.149,0S169.285,160.2,171.647,159.816Z" transform="translate(-142.331 -115.624)" fill="#011109"/>
            <path id="Path_82" data-name="Path 82" d="M126.925,192.582l1.183,2.194a37.9,37.9,0,0,1,4.544,17.991h0" transform="translate(-122.647 -134.918)" fill="none" stroke="#011109" stroke-linecap="round" stroke-miterlimit="10" stroke-width="1.5"/>
            <path id="Path_83" data-name="Path 83" d="M225.792,192.582l-1.184,2.194a37.9,37.9,0,0,0-4.543,17.991h0" transform="translate(-174.416 -134.918)" fill="none" stroke="#011109" stroke-linecap="round" stroke-miterlimit="10" stroke-width="1.5"/>
          </g>
          <g id="Group_78" data-name="Group 78" transform="translate(365.181 600.559)">
            <g id="Group_77" data-name="Group 77" transform="translate(0 0)">
              <path id="Path_186" data-name="Path 186" d="M242.088,342.153c-.664-3.344-1.31-6.7-2-10.041-.091-.457-.185-.909-.28-1.366-.379-1.814-.784-3.629-1.289-5.413-.181-.646-.353-1.349-.582-2.03,1.034-2.552.56-5.443-.168-8.012-.879-3.1-2.051-6.059-2.034-9.339a44.061,44.061,0,0,1,1.616-9.658,36.708,36.708,0,0,0,1.237-9.071,24.16,24.16,0,0,0-1.595-8.2,20.835,20.835,0,0,0-10.83-11.653c-4.646-2.064-11.769-2.931-15.734.918a14.418,14.418,0,0,0-7.2,2.8,16,16,0,0,0-3.732,22.039.706.706,0,0,0,.319.242.766.766,0,0,0-.022.108,5.421,5.421,0,0,0,5.374,6.369c.017.422.03.849.043,1.276a5.292,5.292,0,0,0,.7,2.818,12.96,12.96,0,0,0,4.555,3.87,17.914,17.914,0,0,0,2.293,1.077c-.039.81-.065,1.625-.082,2.439,0,.465-.009.93-.022,1.392a1.415,1.415,0,0,1-.711,1.375,25.655,25.655,0,0,1-4.262,2.379c-1.569.758-3.172,1.448-4.758,2.176a12.117,12.117,0,0,0-4.068,2.37c-1.034,1.138-1.388,2.879-1.793,4.314-.5,1.784-.909,3.6-1.289,5.413-.095.457-.185.909-.28,1.366-.681,3.344-1.332,6.7-2,10.041-.138.7.939,1,1.082.3.681-3.443,1.345-6.9,2.043-10.338.082-.418.164-.832.25-1.249.384-1.875.8-3.745,1.327-5.59a16.292,16.292,0,0,1,.914-2.723,4.01,4.01,0,0,1,1.888-1.754c.435-.233.879-.453,1.327-.664,1.444,2.448,4.387,4.021,7.007,4.852a23.968,23.968,0,0,0,10.481.5,6.265,6.265,0,0,0,4.749,5.085c3.2.694,6.387-1.228,7.951-3.965a4.72,4.72,0,0,0,4.684-1.978c.06.215.12.435.181.646.526,1.844.943,3.715,1.327,5.59.086.418.168.832.25,1.249.7,3.443,1.361,6.9,2.042,10.338C241.149,343.157,242.23,342.856,242.088,342.153Zm-41.121-47.477a3.355,3.355,0,0,1,1.138-2.883,1.954,1.954,0,0,1,1.668-.332,2.678,2.678,0,0,1,1.168.871l.155,4.9c.013.491.03.987.043,1.478A4.309,4.309,0,0,1,200.967,294.676Zm10.864,12.618a14.046,14.046,0,0,1-4.706-3.542,4.588,4.588,0,0,1-.827-3c-.034-1.173-.073-2.349-.112-3.521q-.123-3.9-.254-7.787a47.062,47.062,0,0,0-.315-6.7,20.63,20.63,0,0,0,1.681-1.241,18.618,18.618,0,0,0,3.284-3.478c1.129,3.439,5.27,4.861,8.623,5.576,4.085.874,9.05,1.323,11.765,4.908-.259,2.918-.478,5.835-.732,8.748-.1,1.108-.177,2.216-.293,3.323a4.3,4.3,0,0,1-1.383,2.874,21.556,21.556,0,0,1-4.646,3.586,11.053,11.053,0,0,1-6.227,1.841A15.58,15.58,0,0,1,211.832,307.294Zm-1.879,16.557a15.3,15.3,0,0,1-3.844-1.689,19.217,19.217,0,0,1-2.952-2.418c2.387-1.095,4.84-2.051,7.132-3.335a24.866,24.866,0,0,0,2.2-1.388,2.365,2.365,0,0,0,1.142-1.31,10.734,10.734,0,0,0,.047-2.383c0-.711-.013-1.423-.034-2.129a16.871,16.871,0,0,0,2.685.629,11.8,11.8,0,0,0,1.711.138,5.1,5.1,0,0,0-.534,3.723c-3.012,1.3-5.223,4.34-4.322,7.744a5.109,5.109,0,0,0,2.469,3.168A21.291,21.291,0,0,1,209.953,323.851ZM236.2,323.8a3.359,3.359,0,0,1-3.831,1.388.667.667,0,0,0-.75.3c-1.159,2.349-3.663,4.236-6.391,3.861a4.813,4.813,0,0,1-4.085-5.439.664.664,0,0,0-1.1-.642c-2.31,1.836-5.365-.151-5.714-2.758-.362-2.737,1.689-4.969,4.146-5.809a.652.652,0,0,0,.453-.8,4,4,0,0,1,.715-4.055,11.208,11.208,0,0,0,2.9-.879,21.925,21.925,0,0,0,5.318-3.374c1.521-1.3,2.9-2.624,3.116-4.7.039-.362.073-.724.112-1.086a5.2,5.2,0,0,0,3.413-1.668,5.466,5.466,0,0,0,1.448-4.357,3.534,3.534,0,0,0-2.336-3.094,2.881,2.881,0,0,0-1.68.112q.317-3.787.552-7.576c.043-.642-.918-.616-.987,0-.134,1.194-.255,2.383-.367,3.577-2.336-2.3-5.649-3.249-8.856-3.888-3.728-.737-10.494-1.526-10.713-6.533a.642.642,0,0,0-1.185-.323,17.885,17.885,0,0,1-3.844,4.478,15.268,15.268,0,0,1-1.461,1.068.216.216,0,0,0-.116.078c-1.108.72-2.267,1.349-3.37,2.086a.294.294,0,0,0,.224.534,8.647,8.647,0,0,0,2.892-1,57.244,57.244,0,0,0,.155,6.15c.013.5.03,1,.043,1.508a2.438,2.438,0,0,0-2.211-.707,3.4,3.4,0,0,0-2.37,1.8,15.382,15.382,0,0,1-1.039-14.554,16.077,16.077,0,0,1,10.343-8.278c-.138.237.228.474.431.293,3.8-3.469,10.092-3.206,14.592-1.5A19.434,19.434,0,0,1,235.4,278.4c2.219,5.021,2.262,10.42,1.124,15.708-1.168,5.443-2.9,10.843-1.53,16.423.733,2.987,2.1,5.882,2.219,8.994A6.906,6.906,0,0,1,236.2,323.8Zm-5-25.034q.349-3.465.651-6.951a2.052,2.052,0,0,1,1.78-.09,3.012,3.012,0,0,1,1.366,3.073,4.487,4.487,0,0,1-1.607,3.021,4.6,4.6,0,0,1-1.642.836A5.365,5.365,0,0,1,231.194,298.762Z" transform="translate(-193.491 -265.613)" fill="#011109" stroke="#011109" stroke-width="0.65"/>
              <path id="Path_187" data-name="Path 187" d="M243.036,321.079a6.911,6.911,0,0,1-1.013,4.266,3.359,3.359,0,0,1-3.831,1.388.668.668,0,0,0-.75.3c-1.159,2.349-3.663,4.236-6.391,3.861a4.814,4.814,0,0,1-4.085-5.439.664.664,0,0,0-1.1-.642c-2.31,1.836-5.365-.151-5.714-2.758-.362-2.737,1.689-4.969,4.146-5.809a.652.652,0,0,0,.453-.8,4,4,0,0,1,.715-4.055,11.208,11.208,0,0,0,2.9-.879,21.926,21.926,0,0,0,5.318-3.374c1.521-1.3,2.9-2.624,3.116-4.7.039-.362.073-.724.112-1.086a5.2,5.2,0,0,0,3.413-1.668,5.466,5.466,0,0,0,1.448-4.357,3.534,3.534,0,0,0-2.336-3.094,2.881,2.881,0,0,0-1.68.112q.317-3.787.552-7.576c.043-.642-.918-.616-.987,0-.134,1.194-.255,2.383-.367,3.577-2.336-2.3-5.649-3.249-8.856-3.888-3.728-.737-10.494-1.526-10.713-6.533a.642.642,0,0,0-1.185-.323,17.883,17.883,0,0,1-3.844,4.478,15.264,15.264,0,0,1-1.461,1.068.215.215,0,0,0-.116.078c-1.108.72-2.267,1.349-3.37,2.086a.294.294,0,0,0,.224.534,8.646,8.646,0,0,0,2.892-1,57.242,57.242,0,0,0,.155,6.15c.013.5.03,1,.043,1.508a2.438,2.438,0,0,0-2.211-.707,3.4,3.4,0,0,0-2.37,1.8A15.382,15.382,0,0,1,205.1,279.04a16.077,16.077,0,0,1,10.343-8.279c-.138.237.228.474.431.293,3.8-3.469,10.092-3.206,14.592-1.5a19.434,19.434,0,0,1,10.752,10.394c2.219,5.021,2.262,10.42,1.124,15.708-1.168,5.443-2.9,10.843-1.53,16.423C241.549,315.072,242.915,317.967,243.036,321.079Z" transform="translate(-199.317 -267.163)" fill="#011109"/>
              <path id="Path_188" data-name="Path 188" d="M232.619,328.772a.467.467,0,0,0-.072-.125,2.377,2.377,0,0,0-3.68.412c-.055.111.07.284.191.19a2.617,2.617,0,0,1,1.806-.53,3.06,3.06,0,0,0-.466,1.873c-.009.8.064,2.193.96,2.541.78.3,1.42-.378,1.668-1.042a3.616,3.616,0,0,0-.358-3.262C232.653,328.81,232.635,328.792,232.619,328.772Z" transform="translate(-213.614 -301.088)" fill="#011109"/>
              <path id="Path_189" data-name="Path 189" d="M263.7,328.2a.455.455,0,0,0-.072.125c-.016.019-.034.038-.049.057a3.616,3.616,0,0,0-.357,3.262c.247.665.888,1.346,1.668,1.042.9-.348.968-1.744.96-2.541a3.061,3.061,0,0,0-.467-1.873,2.621,2.621,0,0,1,1.806.53c.121.093.246-.081.191-.191A2.377,2.377,0,0,0,263.7,328.2Z" transform="translate(-233.043 -300.831)" fill="#011109"/>
              <path id="Path_190" data-name="Path 190" d="M231.581,320.769a4.633,4.633,0,0,0-3.432-.634c-.8.116-2.474.509-2.562,1.5a.176.176,0,0,0,.128.169.924.924,0,0,0,.71-.121,6.478,6.478,0,0,1,1.648-.542,7.186,7.186,0,0,1,3.008.486C231.538,321.733,232.007,321.114,231.581,320.769Z" transform="translate(-211.755 -296.598)" fill="#011109"/>
              <path id="Path_191" data-name="Path 191" d="M262.1,321.8a.924.924,0,0,0,.71-.121,6.476,6.476,0,0,1,1.648-.542,7.189,7.189,0,0,1,3.008.486c.456.106.925-.513.5-.858a4.632,4.632,0,0,0-3.432-.634c-.8.116-2.473.509-2.562,1.5A.177.177,0,0,0,262.1,321.8Z" transform="translate(-232.46 -296.598)" fill="#011109"/>
              <path id="Path_192" data-name="Path 192" d="M250.663,332.946a17.138,17.138,0,0,0-.19-3.875.357.357,0,0,0-.684,0,17.172,17.172,0,0,0-.325,3.875C249.432,333.715,250.667,333.72,250.663,332.946Z" transform="translate(-225.342 -301.58)" fill="#011109"/>
              <path id="Path_193" data-name="Path 193" d="M249.987,344.276c.468-.567-.3-1.376-.823-.823-.739.78-1.558,1.615-2.732,1.458-1.115-.148-1.425-1.013-2.04-1.776a.33.33,0,0,0-.548.145c-.321,1.318,1.04,2.522,2.214,2.786C247.666,346.428,249.007,345.462,249.987,344.276Z" transform="translate(-222.117 -309.671)" fill="#011109"/>
            </g>
          </g>
          <g id="Group_81" data-name="Group 81" transform="translate(729.939 412.324)">
            <g id="Group_56" data-name="Group 56" transform="translate(0 48.093)">
              <path id="Path_105" data-name="Path 105" d="M136.563,383.165l-6.281,3.627a24.18,24.18,0,0,0-11.849,17.537l-1.137,8" transform="translate(-117.295 -383.165)" fill="none" stroke="#011109" stroke-linecap="round" stroke-miterlimit="10" stroke-width="1.5"/>
              <path id="Path_106" data-name="Path 106" d="M197.543,383.165l6.281,3.627a24.18,24.18,0,0,1,11.849,17.537l1.137,8" transform="translate(-163.217 -383.165)" fill="none" stroke="#011109" stroke-linecap="round" stroke-miterlimit="10" stroke-width="1.5"/>
            </g>
            <path id="Path_107" data-name="Path 107" d="M162.419,367.758v5.651a7.529,7.529,0,0,0,7.529,7.529h0a7.529,7.529,0,0,0,7.529-7.529v-5.651" transform="translate(-143.117 -326.255)" fill="none" stroke="#011109" stroke-miterlimit="10" stroke-width="1.5"/>
            <path id="Path_108" data-name="Path 108" d="M162.419,367.758v.515a7.529,7.529,0,0,0,7.529,7.529h0a7.529,7.529,0,0,0,7.529-7.529v-.515" transform="translate(-143.117 -326.255)" fill="none" stroke="#011109" stroke-miterlimit="10" stroke-width="1.5"/>
            <path id="Path_109" data-name="Path 109" d="M171.383,370.869l-8.964,1.876v-3.6s.329-.335,1.107,0S169.108,371.239,171.383,370.869Z" transform="translate(-143.117 -326.962)" fill="#011109"/>
            <path id="Path_110" data-name="Path 110" d="M171.607,292.188a4.563,4.563,0,1,1-7.669,4.911,4.562,4.562,0,1,1-8.767,2.28c.015.148.023.3.023.451a4.559,4.559,0,0,1-6.594,4.086v9.618a13.383,13.383,0,0,0,26.765,0v-14.19S176.118,294.077,171.607,292.188Z" transform="translate(-135.209 -283.009)" fill="none" stroke="#011109" stroke-miterlimit="10" stroke-width="1.5"/>
            <path id="Path_111" data-name="Path 111" d="M139.235,322.45l6.281-3.627h.1a7.552,7.552,0,0,1-.065-.939v-5.526a13.369,13.369,0,0,1-5.911-11.1v-9.618a4.559,4.559,0,0,0,6.594-4.086c0-.152-.008-.3-.023-.451a4.563,4.563,0,1,0,8.767-2.28,4.563,4.563,0,1,0,7.669-4.911c4.511,1.889,3.759,7.157,3.759,7.157v14.189a13.367,13.367,0,0,1-5.8,11.023v5.607a7.629,7.629,0,0,1-.065.939h.031l6.281,3.627a24.164,24.164,0,0,1,6.295,5.235V290.835a20.1,20.1,0,0,0-20.1-20.105h0a20.1,20.1,0,0,0-20.105,20.105v36.849A24.169,24.169,0,0,1,139.235,322.45Z" transform="translate(-126.249 -270.73)" fill="#011109"/>
            <path id="Path_112" data-name="Path 112" d="M181.476,331.071s1.341,4.607,1.257,5.781-1.505.352-1.505.352" transform="translate(-153.88 -305.26)" fill="none" stroke="#011109" stroke-linecap="round" stroke-miterlimit="10" stroke-width="1.5"/>
            <g id="Group_57" data-name="Group 57" transform="translate(17.069 19.699)">
              <path id="Path_113" data-name="Path 113" d="M187.995,318.279s3.6-2.932,6.283-.586" transform="translate(-174.823 -316.783)" fill="none" stroke="#011109" stroke-linecap="round" stroke-miterlimit="10" stroke-width="1.5"/>
              <path id="Path_114" data-name="Path 114" d="M187.995,327.62s2.89-2.806,5.7,0" transform="translate(-174.823 -322.271)" fill="none" stroke="#011109" stroke-linecap="round" stroke-miterlimit="10" stroke-width="1.5"/>
              <path id="Path_115" data-name="Path 115" d="M163.483,318.279s-3.6-2.932-6.283-.586" transform="translate(-157.2 -316.783)" fill="none" stroke="#011109" stroke-linecap="round" stroke-miterlimit="10" stroke-width="1.5"/>
              <path id="Path_116" data-name="Path 116" d="M164.267,327.62s-2.89-2.806-5.7,0" transform="translate(-157.985 -322.271)" fill="none" stroke="#011109" stroke-linecap="round" stroke-miterlimit="10" stroke-width="1.5"/>
            </g>
            <path id="Path_117" data-name="Path 117" d="M166.532,346.06s6.382,5.666,12.322,0" transform="translate(-145.471 -313.838)" fill="none" stroke="#011109" stroke-linecap="round" stroke-miterlimit="10" stroke-width="1.5"/>
            <line id="Line_13" data-name="Line 13" y2="22.43" transform="translate(26.831 54.684)" fill="none" stroke="#011109" stroke-linecap="round" stroke-miterlimit="10" stroke-width="1.5"/>
            <g id="Group_58" data-name="Group 58" transform="translate(9.668 65.899)">
              <line id="Line_14" data-name="Line 14" y2="11.215" transform="translate(0 0)" fill="none" stroke="#011109" stroke-linecap="round" stroke-miterlimit="10" stroke-width="1.5"/>
              <line id="Line_15" data-name="Line 15" y2="11.215" transform="translate(34.326 0)" fill="none" stroke="#011109" stroke-linecap="round" stroke-miterlimit="10" stroke-width="1.5"/>
            </g>
          </g>
          <g id="Group_82" data-name="Group 82" transform="translate(547.56 412.323)">
            <path id="Path_86" data-name="Path 86" d="M550.488,148.268v4.606a8.217,8.217,0,0,0,8.217,8.217h0a8.217,8.217,0,0,0,8.217-8.217v-4.606" transform="translate(-532.084 -107.834)" fill="none" stroke="#011109" stroke-miterlimit="10" stroke-width="1.5"/>
            <g id="Group_51" data-name="Group 51" transform="translate(0 47.238)">
              <path id="Path_87" data-name="Path 87" d="M515.905,165.029l-9.241,5.335a11.7,11.7,0,0,0-5.732,8.485l-2.248,15.811" transform="translate(-498.684 -165.029)" fill="none" stroke="#011109" stroke-linecap="round" stroke-miterlimit="10" stroke-width="1.5"/>
              <path id="Path_88" data-name="Path 88" d="M617.4,194.659l-2.248-15.811a11.7,11.7,0,0,0-5.732-8.485l-9.361-5.335" transform="translate(-564.156 -165.029)" fill="none" stroke="#011109" stroke-linecap="round" stroke-miterlimit="10" stroke-width="1.5"/>
            </g>
            <path id="Path_89" data-name="Path 89" d="M564.282,89.87v9.448a6.873,6.873,0,0,1-4.384,6.407l-2.121.824a20.452,20.452,0,0,1-14.815,0l-2.121-.824a6.873,6.873,0,0,1-4.384-6.407V82.21h0a5.565,5.565,0,0,1,5.565-5.565h2.633S546,80.7,553.231,80.7h11.05V89.87Z" transform="translate(-523.748 -65.284)" fill="none" stroke="#011109" stroke-miterlimit="10" stroke-width="1.5"/>
            <g id="Group_53" data-name="Group 53" transform="translate(18.761 23.038)">
              <circle id="Ellipse_45" data-name="Ellipse 45" cx="1.431" cy="1.431" r="1.431" transform="translate(0 0)" fill="#011109"/>
              <circle id="Ellipse_46" data-name="Ellipse 46" cx="1.431" cy="1.431" r="1.431" transform="translate(12.859 0)" fill="#011109"/>
            </g>
            <path id="Path_91" data-name="Path 91" d="M549.983,100.109a3.733,3.733,0,0,0-5.247,0" transform="translate(-528.667 -78.562)" fill="none" stroke="#011109" stroke-linecap="round" stroke-miterlimit="10" stroke-width="1.5"/>
            <path id="Path_92" data-name="Path 92" d="M588.88,100.109a3.733,3.733,0,0,0-5.247,0" transform="translate(-551.775 -78.562)" fill="none" stroke="#011109" stroke-linecap="round" stroke-miterlimit="10" stroke-width="1.5"/>
            <path id="Path_93" data-name="Path 93" d="M561.688,121.166a5.14,5.14,0,0,1-3.733,1.607h-.578a1.421,1.421,0,0,0-1.422-1.421H544.786a1.421,1.421,0,0,0-1.422,1.421h-.578a5.139,5.139,0,0,1-3.733-1.607l-2.595-2.743v5.715a6.873,6.873,0,0,0,4.384,6.407l2.121.824a20.452,20.452,0,0,0,14.815,0l2.121-.824a6.873,6.873,0,0,0,4.384-6.407v-5.715Z" transform="translate(-523.749 -90.103)" fill="#011109"/>
            <path id="Path_94" data-name="Path 94" d="M560.658,130.671s4.6,1.59,8.178,0" transform="translate(-538.126 -96.067)" fill="none" stroke="#4fcf8d" stroke-linecap="round" stroke-miterlimit="10" stroke-width="1.5"/>
            <path id="Path_95" data-name="Path 95" d="M530.757,111.31h-.988a2.908,2.908,0,0,0-2.908,2.908h0a2.908,2.908,0,0,0,2.908,2.908h.988" transform="translate(-518.048 -85.878)" fill="none" stroke="#011109" stroke-miterlimit="10" stroke-width="1.5"/>
            <path id="Path_96" data-name="Path 96" d="M605,111.31h.987a2.908,2.908,0,0,1,2.908,2.908h0a2.908,2.908,0,0,1-2.908,2.908H605" transform="translate(-564.471 -85.878)" fill="none" stroke="#011109" stroke-miterlimit="10" stroke-width="1.5"/>
            <path id="Path_97" data-name="Path 97" d="M566.015,54.93c-.636-5.565-4.452-7-7.632-5.962S549.558,50.4,545.106,50.4a24.806,24.806,0,0,0-5.285.846,12.727,12.727,0,0,0-9.682,12.37V74.556l2.564-.024v-8.95a5.565,5.565,0,0,1,5.565-5.565h0a5.285,5.285,0,0,1,3.726,1.6c1.135,1.135,3.344,2.459,7.478,2.459h11.05v10.2l1.948-.018v-10.9A9.226,9.226,0,0,0,566.015,54.93Z" transform="translate(-519.996 -48.656)" fill="#011109"/>
            <path id="Path_98" data-name="Path 98" d="M570.88,105.41s.954,1.521,1.232,2.116a29.053,29.053,0,0,1,.477,4.85c0,.557-2.544,0-2.544,0" transform="translate(-543.702 -82.372)" fill="none" stroke="#011109" stroke-linecap="round" stroke-miterlimit="10" stroke-width="1.5"/>
            <g id="Group_54" data-name="Group 54" transform="translate(10.353 63.556)">
              <path id="Path_99" data-name="Path 99" d="M514.492,191.607h0a27.072,27.072,0,0,1,3.29,12.779v.533" transform="translate(-514.492 -191.607)" fill="none" stroke="#011109" stroke-linecap="round" stroke-miterlimit="10" stroke-width="1.5"/>
              <path id="Path_100" data-name="Path 100" d="M622.156,191.607h0a27.075,27.075,0,0,0-3.29,12.779v.533" transform="translate(-589.619 -191.607)" fill="none" stroke="#011109" stroke-linecap="round" stroke-miterlimit="10" stroke-width="1.5"/>
            </g>
          </g>
          <g id="Group_83" data-name="Group 83" transform="translate(643.342 599.951)">
            <g id="Group_71" data-name="Group 71" transform="translate(0 0)">
              <path id="Path_154" data-name="Path 154" d="M243.063,131.878c-.74-3.712-1.454-7.423-2.224-11.127-.366-1.774-.761-3.539-1.253-5.284-.395-1.4-.744-3.1-1.749-4.208a11.956,11.956,0,0,0-3.968-2.312c-1.547-.71-3.111-1.379-4.645-2.123a25.135,25.135,0,0,1-4.158-2.32,1.37,1.37,0,0,1-.689-1.337c-.017-.454-.017-.908-.026-1.362q-.018-1.217-.079-2.434a21.077,21.077,0,0,0,2.61-1.442,21.3,21.3,0,0,0,2.3-1.715c1.488-1.274,2.829-2.564,3.039-4.586.038-.353.076-.71.11-1.063a5.048,5.048,0,0,0,3.329-1.627,5.311,5.311,0,0,0,1.417-4.246,3.649,3.649,0,0,0-1.791-2.833c.206-2.787,3.136-4.737,2.876-7.587,1.753.1,2.72-2.043,2.93-3.611a12.875,12.875,0,0,0-11.06-14.342A13.112,13.112,0,0,0,222.7,57.5a5.714,5.714,0,0,0-4.283-2.32c-2.493-.235-4.826.9-7.091,1.749a12.7,12.7,0,0,1-3.846.937,5.919,5.919,0,0,1-2-.219,8.735,8.735,0,0,0-1.614-.5,1.866,1.866,0,0,0-1.934,1.185,2.715,2.715,0,0,0-.038,1.883,1.9,1.9,0,0,0-.832.265,3.084,3.084,0,0,0-1.219,2.333,7.066,7.066,0,0,0,.437,3.451c.193.479.61.954.757,1.433.181.58-.219,1.45-.311,2.047a9.913,9.913,0,0,0,1.152,6.78,6.275,6.275,0,0,0,4.821,3.111c.013.273.025.551.034.82.017.492.034.984.046,1.471a2.381,2.381,0,0,0-2.156-.685,3.735,3.735,0,0,0-2.821,3.148,5.289,5.289,0,0,0,5.246,6.213c.013.416.025.832.042,1.248a5.182,5.182,0,0,0,.681,2.749,11.614,11.614,0,0,0,3.691,3.325c.252.16.5.311.752.45a16.906,16.906,0,0,0,2.236,1.047c-.042.794-.067,1.585-.08,2.379-.008.454-.008.908-.021,1.362a1.381,1.381,0,0,1-.694,1.337,25.132,25.132,0,0,1-4.157,2.32c-1.53.744-3.1,1.412-4.641,2.123a12.015,12.015,0,0,0-3.972,2.312c-1,1.11-1.353,2.808-1.749,4.208-.492,1.744-.887,3.51-1.253,5.284-.769,3.7-1.484,7.415-2.22,11.127-.139.685.916.979,1.051.29.744-3.771,1.467-7.541,2.241-11.3.374-1.833.778-3.657,1.29-5.456a15.873,15.873,0,0,1,.891-2.652,3.91,3.91,0,0,1,1.841-1.711c2.934-1.551,6.091-2.631,8.991-4.25.269,3.422.647,6.894.622,10.315a.561.561,0,0,0,.946.391,6.639,6.639,0,0,1,5.032-2.152c-.122,1.131-.067,2.312-.109,3.417q-.088,2.5-.16,4.99-.145,4.9-.235,9.8c-.013.731,1.181.731,1.194,0q.088-4.9.219-9.8.064-2.409.139-4.817c.038-1.127.172-2.316.139-3.472a6.681,6.681,0,0,1,3,0,5.945,5.945,0,0,1,3.069,1.967.551.551,0,0,0,.92-.244q.7-4.8,1.606-9.567c2.438,1.194,4.99,2.148,7.39,3.417a3.912,3.912,0,0,1,1.841,1.711,15.866,15.866,0,0,1,.891,2.652c.513,1.8.92,3.623,1.295,5.456.769,3.762,1.492,7.533,2.236,11.3C242.142,132.857,243.2,132.563,243.063,131.878Zm-6.924-46.2a4.3,4.3,0,0,1-3.174,3.762,5.018,5.018,0,0,1-.534.109q.347-3.38.639-6.776a1.988,1.988,0,0,1,1.736-.088A2.943,2.943,0,0,1,236.139,85.677Zm-33.186-.109a3.273,3.273,0,0,1,1.11-2.812,1.884,1.884,0,0,1,1.623-.324,2.626,2.626,0,0,1,1.143.849c.051,1.589.1,3.182.147,4.775.017.483.029.963.046,1.446A4.2,4.2,0,0,1,202.953,85.568ZM207,72.805a.214.214,0,0,0-.206.172.675.675,0,0,0-.017.08,8.432,8.432,0,0,0-1.391,2.505c-.118.315.345.462.513.214.219-.315.437-.622.664-.929a36.944,36.944,0,0,0,.1,3.977,7.575,7.575,0,0,1-4.754-8.092c.076-.9.4-1.749.488-2.627.071-.757-.45-1.278-.765-1.921a5.747,5.747,0,0,1-.588-2.694,4.61,4.61,0,0,1,.164-1.223c.143-.475.689-1.324,1.257-.731.458.479,1.11-.126.862-.668-.479-1.055-.908-3.052.992-2.476a9.81,9.81,0,0,0,2.547.593,13.591,13.591,0,0,0,5.389-1.194c2.917-1.122,7.81-2.976,9.74.752a.587.587,0,0,0,.786.206,11.9,11.9,0,0,1,13.968,2.018,12.176,12.176,0,0,1,3.19,6.183,11.259,11.259,0,0,1,.105,3.7c-.172,1.181-.836,3.064-2.4,2.438-.374-.147-.74.29-.635.639.5,1.677-.538,3.182-1.4,4.536a8.1,8.1,0,0,0-1.4,3.338,2.843,2.843,0,0,0-1.059.185q.259-3.071.458-6.137c.126.181.248.357.366.534.349.525,1.206.029.849-.5-1.568-2.291-3.552-4.742-6.061-6.049a20.239,20.239,0,0,0-8.878-1.921,17.134,17.134,0,0,0-8.521,2.131,23.443,23.443,0,0,0-3.737,2.362A6.067,6.067,0,0,0,207,72.805Zm.794,7.655a43.024,43.024,0,0,0-.34-6.7,8.214,8.214,0,0,1,1.282-1.152,29.683,29.683,0,0,1,3.279-1.967,16.146,16.146,0,0,1,8.029-1.929,19.813,19.813,0,0,1,8.252,1.723,13.764,13.764,0,0,1,4.43,3.993c-.227,2-.412,4-.584,6a6.22,6.22,0,0,0-3.056-3.489,5.447,5.447,0,0,0-4.191,0,4.456,4.456,0,0,0-1.77,1.2,6.526,6.526,0,0,0-1.311,3.06,2.52,2.52,0,0,0-2.034-.555,3.309,3.309,0,0,0-1.446.559,6.235,6.235,0,0,0-3.275-4.267,5.446,5.446,0,0,0-4.191,0,4.456,4.456,0,0,0-1.77,1.2,6.333,6.333,0,0,0-1.282,2.93C207.808,80.872,207.8,80.666,207.8,80.46Zm22.855,4.99a4.668,4.668,0,0,1-7.1.61A5.369,5.369,0,0,1,222.5,81.78a6.382,6.382,0,0,1,.622-2.505,3.871,3.871,0,0,1,1.908-1.538,4.546,4.546,0,0,1,4.8.605.419.419,0,0,1,.042.034A5.3,5.3,0,0,1,230.65,85.45Zm-14.027,0a4.668,4.668,0,0,1-7.1.61,5.369,5.369,0,0,1-1.051-4.279,6.383,6.383,0,0,1,.622-2.505A3.871,3.871,0,0,1,211,77.736a4.546,4.546,0,0,1,4.8.605.37.37,0,0,1,.042.034A5.3,5.3,0,0,1,216.622,85.45Zm-2.963,12.48c-.038-.017-.076-.038-.114-.055a13.727,13.727,0,0,1-4.586-3.455,4.438,4.438,0,0,1-.807-2.93c-.038-1.143-.071-2.291-.109-3.434-.034-1.114-.071-2.224-.109-3.338.025.084.05.164.08.244a5.224,5.224,0,0,0,5.818,3.14,5.881,5.881,0,0,0,4.59-5.246,4.895,4.895,0,0,0,.017-.9,3.391,3.391,0,0,1,1.148-.576,1.8,1.8,0,0,1,2.09.8s0,0,0,.008a6.911,6.911,0,0,0,.357,2.766,5.232,5.232,0,0,0,5.822,3.14,5.41,5.41,0,0,0,3.892-2.989c-.08.992-.164,1.984-.248,2.972-.093,1.08-.172,2.165-.286,3.241a4.2,4.2,0,0,1-1.354,2.808,20.773,20.773,0,0,1-4.527,3.493q-.272.158-.542.3a10.136,10.136,0,0,1-5.536,1.5A15.3,15.3,0,0,1,213.659,97.93Zm-.088,17.975c-.336-3.207-.4-6.478-.593-9.693.412-.256.82-.521,1.215-.8.071-.055.143-.105.214-.156a34.139,34.139,0,0,0,1.719,4.561q1.04,2.465,2.312,4.813A5.621,5.621,0,0,0,213.571,115.9Zm5.649-2.119c-.744-1.429-1.446-2.888-2.085-4.367-.706-1.631-1.223-3.359-1.946-4.985a1.153,1.153,0,0,0,.114-.3,10.514,10.514,0,0,0,.05-2.329c0-.694-.013-1.383-.034-2.077a15.969,15.969,0,0,0,2.615.618,10.2,10.2,0,0,0,5.477-.6c-.017.685-.029,1.37-.029,2.06a10.819,10.819,0,0,0,.038,2.274.525.525,0,0,0-.126.21A53.359,53.359,0,0,1,219.22,113.786Zm6.621,2.122a7.069,7.069,0,0,0-5.683-1.618,57.667,57.667,0,0,0,3.956-9.193c.139.109.282.21.429.315a24.268,24.268,0,0,0,2.148,1.349c.219.122.437.24.66.357Q226.5,111.5,225.84,115.908Z" transform="translate(-195.659 -55.149)" fill="#011109" stroke="#011109" stroke-width="0.5"/>
              <path id="Path_155" data-name="Path 155" d="M247.457,72.271c-.172,1.181-.836,3.064-2.4,2.438-.374-.147-.74.29-.635.639.5,1.677-.538,3.182-1.4,4.536a8.1,8.1,0,0,0-1.4,3.338,2.843,2.843,0,0,0-1.059.185q.259-3.071.458-6.137c.126.181.248.357.366.534.349.525,1.206.029.849-.5-1.567-2.291-3.552-4.742-6.061-6.049a20.239,20.239,0,0,0-8.878-1.921,17.134,17.134,0,0,0-8.521,2.131,23.445,23.445,0,0,0-3.737,2.362,6.03,6.03,0,0,0-.626.6.215.215,0,0,0-.206.172.694.694,0,0,0-.017.08,8.432,8.432,0,0,0-1.391,2.505c-.118.315.345.462.513.214.219-.315.437-.622.664-.929a36.96,36.96,0,0,0,.1,3.977,7.575,7.575,0,0,1-4.754-8.092c.076-.9.4-1.749.488-2.627.071-.757-.45-1.278-.765-1.921a5.747,5.747,0,0,1-.588-2.694,4.611,4.611,0,0,1,.164-1.223c.143-.475.689-1.324,1.257-.731.458.479,1.11-.126.862-.668-.479-1.055-.908-3.052.992-2.476a9.81,9.81,0,0,0,2.547.593,13.591,13.591,0,0,0,5.389-1.194c2.917-1.122,7.81-2.976,9.74.752a.587.587,0,0,0,.786.206,11.9,11.9,0,0,1,13.968,2.018,12.175,12.175,0,0,1,3.19,6.183A11.259,11.259,0,0,1,247.457,72.271Z" transform="translate(-203.076 -56.771)" fill="#011109" stroke="#011109" stroke-width="0.5"/>
              <path id="Path_156" data-name="Path 156" d="M251.57,136.038a.476.476,0,0,0-.02-.227.114.114,0,0,0-.048-.168c-1.157-.52-2.817-.314-4.065-.352a22.242,22.242,0,0,0-4.169.006.4.4,0,0,0-.288.379,3.971,3.971,0,0,0,3.856,4.19A4.7,4.7,0,0,0,251.57,136.038Zm-7.8.124c2.325-.037,4.642-.032,6.963.118a4.014,4.014,0,0,1-3.61,2.772A3.167,3.167,0,0,1,243.774,136.162Z" transform="translate(-223.083 -101.543)" fill="#011109" stroke="#011109" stroke-width="0.5"/>
              <path id="Path_157" data-name="Path 157" d="M235.992,115.409a.45.45,0,0,0-.07-.122,2.318,2.318,0,0,0-3.59.4c-.054.108.068.277.186.186a2.555,2.555,0,0,1,1.762-.517,2.985,2.985,0,0,0-.455,1.827c-.008.778.062,2.14.937,2.479.761.3,1.385-.369,1.627-1.017a3.528,3.528,0,0,0-.348-3.182C236.025,115.446,236.008,115.427,235.992,115.409Z" transform="translate(-216.909 -89.616)" fill="#011109" stroke="#011109" stroke-width="0.5"/>
              <path id="Path_158" data-name="Path 158" d="M268.45,115.7a.461.461,0,0,0-.07.122c-.016.018-.033.037-.048.056a3.528,3.528,0,0,0-.348,3.182c.241.648.866,1.313,1.627,1.017.874-.34.945-1.7.937-2.479a2.986,2.986,0,0,0-.455-1.827,2.558,2.558,0,0,1,1.762.517c.118.091.24-.078.186-.186A2.319,2.319,0,0,0,268.45,115.7Z" transform="translate(-237.453 -89.856)" fill="#011109" stroke="#011109" stroke-width="0.5"/>
            </g>
          </g>
          <g id="Group_85" data-name="Group 85" transform="translate(362.557 412.323)">
            <path id="Path_41" data-name="Path 41" d="M392.6,165.363v-5.386" transform="translate(-354.509 -120.089)" fill="none" stroke="#011109" stroke-miterlimit="10" stroke-width="1.5"/>
            <line id="Line_5" data-name="Line 5" y2="5.386" transform="translate(21.382 39.888)" fill="none" stroke="#011109" stroke-miterlimit="10" stroke-width="1.5"/>
            <g id="Group_39" data-name="Group 39" transform="translate(0 44.571)">
              <path id="Path_42" data-name="Path 42" d="M333.735,169.845l-6.971,4.024a26.834,26.834,0,0,0-13.149,19.461l-1.262,8.878" transform="translate(-312.353 -169.845)" fill="none" stroke="#011109" stroke-linecap="round" stroke-miterlimit="10" stroke-width="1.5"/>
              <path id="Path_43" data-name="Path 43" d="M392.6,169.845l6.971,4.024a26.833,26.833,0,0,1,13.149,19.461l1.262,8.878" transform="translate(-354.509 -169.845)" fill="none" stroke="#011109" stroke-linecap="round" stroke-miterlimit="10" stroke-width="1.5"/>
            </g>
            <path id="Path_44" data-name="Path 44" d="M373.486,109.516v9.213a6.7,6.7,0,0,1-4.275,6.247l-2.068.8a19.944,19.944,0,0,1-14.446,0l-2.068-.8a6.7,6.7,0,0,1-4.275-6.247V104.566A10.562,10.562,0,0,1,356.917,94h0a15.512,15.512,0,0,0,15.512,15.512h1.058Z" transform="translate(-330.215 -85.434)" fill="none" stroke="#011109" stroke-miterlimit="10" stroke-width="1.5"/>
            <path id="Path_45" data-name="Path 45" d="M367.577,98.764c-.147-9.883-.728-18.256-7.938-21.628s-13.721,1.511-13.721,1.511A13.245,13.245,0,0,0,334.091,81.7c-5.349,4.884-5.265,7.533-6.079,17.068s-4.419,12.442-3.721,17.616,9.494,8.253,9.494,8.253l6.35-3.666-.176-5.13c-.037-.007-5.242-1.534-5.242-8.236V95.081A10.562,10.562,0,0,1,345.279,84.52a15.512,15.512,0,0,0,15.512,15.512h1.058v6.994c0,6.544-1.355,7.325-5.178,8.811v2.719a1.605,1.605,0,0,0,.733,2.387c1.7.984,5.9,3.992,5.9,3.992s7.264-2.1,8.543-7.916S367.724,108.647,367.577,98.764Z" transform="translate(-318.577 -75.949)" fill="#011109"/>
            <path id="Path_46" data-name="Path 46" d="M369.1,162.392l-11.7,2.033.017-3.416s-.239.026,2.006.527S369.1,162.392,369.1,162.392Z" transform="translate(-336.016 -120.632)" fill="#011109"/>
            <g id="Group_41" data-name="Group 41" transform="translate(22.739 22.573)">
              <circle id="Ellipse_33" data-name="Ellipse 33" cx="1.395" cy="1.395" r="1.395" fill="#011109"/>
              <circle id="Ellipse_34" data-name="Ellipse 34" cx="1.395" cy="1.395" r="1.395" transform="translate(11.143)" fill="#011109"/>
            </g>
            <path id="Path_47" data-name="Path 47" d="M360.577,119.239a3.64,3.64,0,0,0-5.116,0" transform="translate(-334.998 -98.12)" fill="none" stroke="#011109" stroke-linecap="round" stroke-miterlimit="10" stroke-width="1.5"/>
            <path id="Path_48" data-name="Path 48" d="M375.945,131.688a33.952,33.952,0,0,1,.543,3.488c0,.776-1.472.62-1.472.62" transform="translate(-345.27 -105.229)" fill="none" stroke="#011109" stroke-linecap="round" stroke-miterlimit="10" stroke-width="1.5"/>
            <path id="Path_49" data-name="Path 49" d="M363.2,143.282h11.143v.087a5.572,5.572,0,0,1-5.572,5.571h0a5.572,5.572,0,0,1-5.571-5.571Z" transform="translate(-339.061 -111.32)" fill="#011109"/>
            <path id="Path_50" data-name="Path 50" d="M373.181,180.611h0a11.751,11.751,0,0,1-11.751,11.75h-10.6a11.751,11.751,0,0,1-11.75-11.75h0" transform="translate(-326.393 -130.929)" fill="none" stroke="#011109" stroke-miterlimit="10" stroke-width="1.5"/>
            <g id="Group_42" data-name="Group 42" transform="translate(8.04 64.096)">
              <path id="Path_51" data-name="Path 51" d="M329.29,210.978a108.1,108.1,0,0,1,.941,12.838" transform="translate(-329.29 -210.978)" fill="none" stroke="#011109" stroke-linecap="round" stroke-miterlimit="10" stroke-width="1.5"/>
              <path id="Path_52" data-name="Path 52" d="M419.668,210.978a108.15,108.15,0,0,0-.941,12.838" transform="translate(-376.272 -210.978)" fill="none" stroke="#011109" stroke-linecap="round" stroke-miterlimit="10" stroke-width="1.5"/>
            </g>
          </g>
          <g id="Group_86" data-name="Group 86" transform="translate(181.49 412.506)">
            <path id="Path_54" data-name="Path 54" d="M364.8,290.774a4.773,4.773,0,0,0-1.678-3.636,4.779,4.779,0,0,0-2.247-6.916,4.78,4.78,0,0,0-4.275-5.883,4.779,4.779,0,0,0-5.883-4.274,4.778,4.778,0,0,0-6.916-2.247,4.779,4.779,0,0,0-7.272,0,4.778,4.778,0,0,0-6.916,2.247,4.779,4.779,0,0,0-5.883,4.274,4.779,4.779,0,0,0-4.274,5.883,4.78,4.78,0,0,0-2.247,6.916,4.778,4.778,0,0,0,0,7.271,4.78,4.78,0,0,0,2.247,6.916,4.779,4.779,0,0,0,4.274,5.883,4.779,4.779,0,0,0,5.883,4.274,4.776,4.776,0,0,0,2.939,2.719c.109.035.218.06.328.087v-4.133a10.315,10.315,0,0,1-5.463-7.091h-.867a3.571,3.571,0,1,1,0-7.142h.649v-5.2a9.293,9.293,0,0,1,9.293-9.293h7.346a9.293,9.293,0,0,1,9.293,9.293v5.3l.014-.109h.649a3.571,3.571,0,0,1,0,7.142h-.881a10.318,10.318,0,0,1-5.443,7.082v4.138c.1-.026.205-.048.307-.081a4.776,4.776,0,0,0,2.939-2.719,4.779,4.779,0,0,0,5.883-4.274,4.78,4.78,0,0,0,4.275-5.883,4.779,4.779,0,0,0,2.247-6.916A4.771,4.771,0,0,0,364.8,290.774Z" transform="translate(-314.213 -266.139)" fill="#011109"/>
            <path id="Path_55" data-name="Path 55" d="M369.62,322.565a10.309,10.309,0,0,1-10.309,10.308H354a10.309,10.309,0,0,1-10.309-10.308V312.338a9.293,9.293,0,0,1,9.293-9.293h7.346a9.293,9.293,0,0,1,9.293,9.293Z" transform="translate(-330.702 -287.75)" fill="none" stroke="#011109" stroke-miterlimit="10" stroke-width="1.5"/>
            <path id="Path_56" data-name="Path 56" d="M337.725,338.006h-.649a3.571,3.571,0,0,0-3.571,3.571h0a3.571,3.571,0,0,0,3.571,3.571h.867" transform="translate(-324.739 -308.223)" fill="none" stroke="#011109" stroke-miterlimit="10" stroke-width="1.5"/>
            <path id="Path_57" data-name="Path 57" d="M406.275,338.006h.649a3.571,3.571,0,0,1,3.571,3.571h0a3.571,3.571,0,0,1-3.571,3.571h-.663" transform="translate(-367.344 -308.223)" fill="none" stroke="#011109" stroke-miterlimit="10" stroke-width="1.5"/>
            <path id="Path_58" data-name="Path 58" d="M357.4,372.864v4.131a7.3,7.3,0,0,0,7.295,7.295h0a7.3,7.3,0,0,0,7.295-7.295v-4.131" transform="translate(-338.731 -328.635)" fill="none" stroke="#011109" stroke-miterlimit="10" stroke-width="1.5"/>
            <g id="Group_45" data-name="Group 45" transform="translate(0 48.359)">
              <path id="Path_59" data-name="Path 59" d="M331.02,382.831l-11.583,6.688a10.386,10.386,0,0,0-5.089,7.532l-2,14.035" transform="translate(-312.353 -382.831)" fill="none" stroke="#011109" stroke-linecap="round" stroke-miterlimit="10" stroke-width="1.5"/>
              <path id="Path_60" data-name="Path 60" d="M392.6,382.831l11.583,6.688a10.386,10.386,0,0,1,5.089,7.532l1.995,14.035" transform="translate(-359.345 -382.831)" fill="none" stroke="#011109" stroke-linecap="round" stroke-miterlimit="10" stroke-width="1.5"/>
            </g>
            <path id="Path_61" data-name="Path 61" d="M366.562,374.058l-9.164,2.094v-3.288s.319.163,1.072.487A26.983,26.983,0,0,0,366.562,374.058Z" transform="translate(-338.731 -328.635)" fill="#011109"/>
            <path id="Path_62" data-name="Path 62" d="M358.6,349.75h13.575v.106a6.788,6.788,0,0,1-6.787,6.788h0a6.788,6.788,0,0,1-6.788-6.788Z" transform="translate(-339.433 -315.1)" fill="#011109"/>
            <g id="Group_46" data-name="Group 46" transform="translate(18.658 26.759)">
              <circle id="Ellipse_37" data-name="Ellipse 37" cx="1.461" cy="1.461" r="1.461" transform="translate(0 0)" fill="#011109"/>
              <circle id="Ellipse_38" data-name="Ellipse 38" cx="1.461" cy="1.461" r="1.461" transform="translate(11.667 0)" fill="#011109"/>
            </g>
            <path id="Path_65" data-name="Path 65" d="M357.881,322.315a5.3,5.3,0,0,0-6.026-.072" transform="translate(-335.485 -298.456)" fill="none" stroke="#011109" stroke-linecap="round" stroke-miterlimit="10" stroke-width="1.5"/>
            <path id="Path_66" data-name="Path 66" d="M381.781,322.315a5.3,5.3,0,0,1,6.026-.072" transform="translate(-353.009 -298.456)" fill="none" stroke="#011109" stroke-linecap="round" stroke-miterlimit="10" stroke-width="1.5"/>
            <path id="Path_67" data-name="Path 67" d="M375.317,341.284s1.041.891.98,1.774-1.321.676-1.321.676" transform="translate(-349.024 -310.143)" fill="none" stroke="#011109" stroke-linecap="round" stroke-miterlimit="10" stroke-width="1.5"/>
            <line id="Line_9" data-name="Line 9" y2="21.567" transform="translate(7.084 55.046)" fill="none" stroke="#011109" stroke-linecap="round" stroke-miterlimit="10" stroke-width="1.5"/>
            <line id="Line_10" data-name="Line 10" y2="21.567" transform="translate(44.839 55.046)" fill="none" stroke="#011109" stroke-linecap="round" stroke-miterlimit="10" stroke-width="1.5"/>
          </g>
          <g id="Group_87" data-name="Group 87" transform="translate(369.117 228.632)">
            <g id="Group_73" data-name="Group 73" transform="translate(0 0)">
              <path id="Path_163" data-name="Path 163" d="M105.874,137.028c-.463,1.219-1.536,2.66-3.04,2.239-1.257-.352-1.6-1.6-2.293-2.512a.332.332,0,0,0-.6.078c-.455,1.639,1.383,3.46,2.886,3.719,2.1.363,3.5-1.47,4.135-3.224C107.213,136.64,106.13,136.356,105.874,137.028Z" transform="translate(-79.6 -103.056)" fill="#011109" stroke="#011109" stroke-width="0.5"/>
              <path id="Path_164" data-name="Path 164" d="M103.65,126.466a8.49,8.49,0,0,0-6.335.192c-.741.325-1.845.787-2.122,1.641a.929.929,0,0,0,.843,1.233,5.177,5.177,0,0,0,2.876-.973,8.575,8.575,0,0,0,1.806-1.137,8.575,8.575,0,0,0,1.806,1.137,5.173,5.173,0,0,0,2.876.973.929.929,0,0,0,.843-1.233C105.917,127.286,104.554,126.8,103.65,126.466Z" transform="translate(-76.846 -96.857)" fill="#011109" stroke="#011109" stroke-width="0.5"/>
              <path id="Path_165" data-name="Path 165" d="M88.9,107.964a.439.439,0,0,0,.621-.62,3.445,3.445,0,0,0-4.5.114c-.34.3.1.84.479.621C86.493,107.512,87.958,107.019,88.9,107.964Z" transform="translate(-70.889 -85.581)" fill="#011109" stroke="#011109" stroke-width="0.5"/>
              <path id="Path_166" data-name="Path 166" d="M121.841,107.458c-.34.3.1.84.479.621.994-.567,2.459-1.06,3.4-.115a.439.439,0,0,0,.62-.62A3.445,3.445,0,0,0,121.841,107.458Z" transform="translate(-92.307 -85.581)" fill="#011109" stroke="#011109" stroke-width="0.5"/>
              <path id="Path_167" data-name="Path 167" d="M98.584,132.747c-.736-3.69-1.447-7.388-2.213-11.073-.364-1.761-.757-3.522-1.247-5.254-.393-1.393-.74-3.083-1.74-4.187a11.8,11.8,0,0,0-3.949-2.3c-1.539-.711-3.1-1.376-4.622-2.117a24.689,24.689,0,0,1-4.137-2.3,1.37,1.37,0,0,1-.686-1.334c-.017-.452-.017-.9-.025-1.351,0-.364-.017-.724-.025-1.083a21.461,21.461,0,0,0,4.648-3.033c1.477-1.268,2.811-2.548,3.024-4.564.038-.351.071-.707.109-1.058a5,5,0,0,0,3.313-1.619,5.268,5.268,0,0,0,1.406-4.225,3.5,3.5,0,0,0-2.033-2.928A18.257,18.257,0,0,1,92.3,80.954c.8-1.067,2.192-1.389,2.932-2.51a3.323,3.323,0,0,0-.878-4.56,3.047,3.047,0,0,0,1.1-2.669A3.8,3.8,0,0,0,93.7,68.5a3.62,3.62,0,0,0,1.757-3.46c-.184-2.225-2.008-3.911-3.7-5.158A17.951,17.951,0,0,0,77.7,56.746a14.924,14.924,0,0,0-7.547,3.669.3.3,0,0,0-.046.063c-4.43-.209-9.107,2.372-12.228,5.308a13.5,13.5,0,0,0-4.083,5.99c-.23.9-.4,2.058.406,2.719a3.77,3.77,0,0,0,2.242.619,3.63,3.63,0,0,0-.707,2.9c.381,1.2,1.715,1.288,2.8,1.389q.841,2.2,1.682,4.4c-.021,0-.046,0-.067.008a3.712,3.712,0,0,0-2.807,3.133,5.263,5.263,0,0,0,5.221,6.183c.013.414.025.828.042,1.242a5.115,5.115,0,0,0,.674,2.736,12.686,12.686,0,0,0,4.426,3.757,16.8,16.8,0,0,0,2.347,1.088c-.008.293-.017.581-.021.874-.008.448-.008.9-.021,1.351a1.38,1.38,0,0,1-.69,1.334,24.688,24.688,0,0,1-4.137,2.3c-1.523.74-3.083,1.406-4.618,2.117a11.774,11.774,0,0,0-3.953,2.3c-1,1.1-1.347,2.794-1.74,4.187-.489,1.732-.883,3.493-1.247,5.254-.766,3.685-1.477,7.383-2.209,11.073-.138.682.912.975,1.046.289.74-3.748,1.46-7.5,2.23-11.249.372-1.82.774-3.635,1.284-5.426a15.832,15.832,0,0,1,.887-2.644,3.933,3.933,0,0,1,1.832-1.7c2.355-1.242,4.848-2.184,7.241-3.342a5.935,5.935,0,0,0,.95,1.627,11.1,11.1,0,0,0,1.887,2.1,7.97,7.97,0,0,0,5.5,1.991,12.867,12.867,0,0,0,10.115-5.551c2.288,1.083,4.664,2,6.906,3.179a3.933,3.933,0,0,1,1.832,1.7,15.833,15.833,0,0,1,.887,2.644c.51,1.79.916,3.606,1.288,5.426.766,3.744,1.485,7.5,2.225,11.249C97.668,133.721,98.718,133.428,98.584,132.747ZM91.51,88.221a4.268,4.268,0,0,1-3.154,3.744c-.18.05-.356.079-.531.113q.339-3.37.632-6.747a1.987,1.987,0,0,1,1.732-.088A2.919,2.919,0,0,1,91.51,88.221Zm-33.022-.109a3.254,3.254,0,0,1,1.1-2.8,1.884,1.884,0,0,1,1.619-.322,2.614,2.614,0,0,1,1.138.845c.046,1.585.1,3.167.146,4.752.013.481.029.958.042,1.439A4.181,4.181,0,0,1,58.488,88.111Zm4.079-12.7a.258.258,0,0,0-.184.05,3.168,3.168,0,0,1-.8.1.252.252,0,0,0-.13.464,1.551,1.551,0,0,0,.745.234,40.677,40.677,0,0,0,.063,6.773c.013.489.029.979.046,1.464a2.258,2.258,0,0,0-.87-.573.7.7,0,0,0-.033-.126q-.966-2.522-1.933-5.049a.588.588,0,0,0-.531-.406c-.858-.1-2.2.088-2.159-1.134A4.013,4.013,0,0,1,57.9,74.943a.536.536,0,0,0-.372-.9c-1.054.046-2.916.255-2.886-1.217a6.521,6.521,0,0,1,1.251-3.171,18.252,18.252,0,0,1,4.129-4.4,20.076,20.076,0,0,1,5.057-2.866,43.044,43.044,0,0,1,5.267-1.46.3.3,0,0,0,.172-.042h0a.308.308,0,0,1,.059-.017.148.148,0,0,0,.113-.088,22.751,22.751,0,0,1,7.254-3.133,16.725,16.725,0,0,1,7.977.389,16.346,16.346,0,0,1,6.81,3.911A5.071,5.071,0,0,1,94.531,65.4a2.516,2.516,0,0,1-2.062,2.573.461.461,0,0,0-.109.832,3.442,3.442,0,0,1,2.071,2.046,2.114,2.114,0,0,1-1.159,2.581.488.488,0,0,0,0,.933,2.384,2.384,0,0,1,1.506,2.585c-.238,1.326-1.372,1.686-2.338,2.384-1.527,1.1-2.422,3.142-3.167,4.8a.429.429,0,0,0-.017.042,2.62,2.62,0,0,0-.715.167c.2-2.389.376-4.773.523-7.153a7.366,7.366,0,0,0,.8-.029c.64-.059.648-1.063,0-1.008-3.338.272-5.953-2.075-6.973-5.1a.5.5,0,0,0-.966.13c-.021,1.021-.088,2.824-1.481,2.907-1.175.067-1.9-1.175-2.422-2.037-.289-.477-1.15-.167-.937.4.314.841.707,2.3-.694,2.213a5.609,5.609,0,0,1-2.435-1.083A10.958,10.958,0,0,1,70.41,69.81a.536.536,0,0,0-.916,0A15.974,15.974,0,0,1,66.026,73.4,12.027,12.027,0,0,1,62.567,75.411Zm.527,1.724c-.046-.326-.1-.648-.167-.966a5.3,5.3,0,0,0,.753-.28,15.241,15.241,0,0,0,2.61-1.468,17.134,17.134,0,0,0,3.61-3.409,11.407,11.407,0,0,0,5.183,4.4,2.537,2.537,0,0,0,2.882-.209,1.79,1.79,0,0,0,.473-.979,2.641,2.641,0,0,0,2.4.795A2.485,2.485,0,0,0,82.688,73a7.858,7.858,0,0,0,5.417,4.1c-.2,1.8-.372,3.61-.531,5.417a7.231,7.231,0,0,0-.347,1.125c-.2.766-.393,1.535-.607,2.3-.414,1.5-.866,3-1.385,4.476a5.221,5.221,0,0,1-1.1,2.146,8.89,8.89,0,0,1-2.041,1.171A32.311,32.311,0,0,1,77.856,95.5c-1.552.519-3.317,1.163-4.965.832a14.847,14.847,0,0,1-4.2-2.008c-1.272-.74-2.677-1.481-3.313-2.882a16.082,16.082,0,0,1-.912-4.455q-.376-2.711-.745-5.421C63.525,80.117,63.4,78.586,63.094,77.135ZM69.03,100.36a13.676,13.676,0,0,1-4.568-3.439,4.432,4.432,0,0,1-.8-2.912c-.038-1.142-.075-2.28-.109-3.422l-.2-6.087q.169,1.261.339,2.518a18.662,18.662,0,0,0,.862,4.836,6.674,6.674,0,0,0,2.958,2.9,25.823,25.823,0,0,0,4.367,2.284,7.576,7.576,0,0,0,4.836-.176A34.092,34.092,0,0,0,81.4,95.127c1.242-.565,3.033-1.18,3.823-2.359a18.912,18.912,0,0,0,1.878-5.108c.021-.063.038-.13.059-.192l-.264,3.15c-.1,1.075-.176,2.154-.284,3.229a4.2,4.2,0,0,1-1.347,2.79,20.8,20.8,0,0,1-4.509,3.476,10.729,10.729,0,0,1-6.045,1.79A15.229,15.229,0,0,1,69.03,100.36Zm5.25,12.892a7.02,7.02,0,0,1-5.016-1.9,13.223,13.223,0,0,1-1.79-2.016,11.107,11.107,0,0,0-.736-1.058c.33-.167.653-.339.975-.519a24.565,24.565,0,0,0,2.142-1.347,2.288,2.288,0,0,0,1.1-1.272,10.423,10.423,0,0,0,.05-2.313c0-.184,0-.368-.008-.552a16.3,16.3,0,0,0,2.4.548A10.18,10.18,0,0,0,79,102.163c0,.218,0,.439,0,.661a10.177,10.177,0,0,0,.046,2.313,2.288,2.288,0,0,0,1.1,1.272,25.2,25.2,0,0,0,2.142,1.347c.376.209.757.41,1.142.607A12.078,12.078,0,0,1,74.28,113.253Z" transform="translate(-51.41 -56.41)" fill="#011109" stroke="#011109" stroke-width="0.5"/>
              <path id="Path_168" data-name="Path 168" d="M103.771,126.529l-.264,3.15c-.1,1.075-.176,2.154-.284,3.229a4.2,4.2,0,0,1-1.347,2.79,20.8,20.8,0,0,1-4.509,3.476,10.729,10.729,0,0,1-6.045,1.79,15.221,15.221,0,0,1-5.685-1.544,13.676,13.676,0,0,1-4.568-3.439,4.432,4.432,0,0,1-.8-2.912c-.038-1.142-.075-2.28-.109-3.422l-.2-6.087q.169,1.261.339,2.518a18.662,18.662,0,0,0,.862,4.836,6.673,6.673,0,0,0,2.958,2.9,25.822,25.822,0,0,0,4.367,2.284,7.576,7.576,0,0,0,4.836-.176,34.087,34.087,0,0,0,4.689-1.736c1.242-.565,3.033-1.18,3.823-2.359a18.911,18.911,0,0,0,1.878-5.108C103.733,126.659,103.75,126.592,103.771,126.529Z" transform="translate(-68.017 -95.471)" fill="#011109" stroke="#011109" stroke-width="0.5"/>
              <path id="Path_169" data-name="Path 169" d="M99.273,78.245c-.238,1.326-1.372,1.686-2.338,2.384-1.527,1.1-2.422,3.142-3.167,4.8a.434.434,0,0,0-.017.042,2.621,2.621,0,0,0-.715.167c.2-2.389.376-4.773.523-7.153a7.36,7.36,0,0,0,.8-.029c.64-.059.648-1.063,0-1.008-3.338.272-5.953-2.075-6.973-5.1a.5.5,0,0,0-.966.13C86.4,73.5,86.33,75.3,84.937,75.384c-1.175.067-1.9-1.175-2.422-2.037-.289-.477-1.15-.167-.937.4.314.841.707,2.3-.694,2.213a5.609,5.609,0,0,1-2.435-1.083A10.958,10.958,0,0,1,74.906,71.1a.536.536,0,0,0-.916,0A15.973,15.973,0,0,1,70.522,74.7a12.037,12.037,0,0,1-3.46,2.008.258.258,0,0,0-.184.05,3.168,3.168,0,0,1-.8.1.252.252,0,0,0-.13.464,1.551,1.551,0,0,0,.745.234,40.677,40.677,0,0,0,.063,6.773c.013.489.029.979.046,1.464a2.258,2.258,0,0,0-.87-.573.7.7,0,0,0-.033-.126q-.966-2.522-1.933-5.049a.588.588,0,0,0-.531-.406c-.858-.1-2.2.088-2.159-1.134A4.013,4.013,0,0,1,62.4,76.237a.536.536,0,0,0-.372-.9c-1.054.046-2.916.255-2.886-1.217a6.521,6.521,0,0,1,1.251-3.171,18.252,18.252,0,0,1,4.129-4.4,20.076,20.076,0,0,1,5.057-2.865,43.044,43.044,0,0,1,5.267-1.46.3.3,0,0,0,.172-.042h0a.309.309,0,0,1,.059-.017.148.148,0,0,0,.113-.088,22.752,22.752,0,0,1,7.254-3.133,16.726,16.726,0,0,1,7.977.389,16.346,16.346,0,0,1,6.81,3.911A5.071,5.071,0,0,1,99.026,66.7a2.516,2.516,0,0,1-2.062,2.573.461.461,0,0,0-.109.832,3.442,3.442,0,0,1,2.071,2.046,2.114,2.114,0,0,1-1.159,2.581.488.488,0,0,0,0,.933A2.384,2.384,0,0,1,99.273,78.245Z" transform="translate(-55.906 -57.704)" fill="#011109" stroke="#011109" stroke-width="0.5"/>
              <path id="Path_170" data-name="Path 170" d="M90.038,114.943c-.015-.019-.031-.037-.047-.056a.448.448,0,0,0-.07-.122,2.307,2.307,0,0,0-3.572.4c-.054.108.068.276.185.185a2.543,2.543,0,0,1,1.753-.515,2.97,2.97,0,0,0-.453,1.818c-.008.775.062,2.129.932,2.467.758.294,1.379-.367,1.619-1.012A3.511,3.511,0,0,0,90.038,114.943Z" transform="translate(-71.726 -89.963)" fill="#011109" stroke="#011109" stroke-width="0.5"/>
              <path id="Path_171" data-name="Path 171" d="M122.463,115.181a.442.442,0,0,0-.07.122c-.016.018-.033.036-.048.056a3.51,3.51,0,0,0-.347,3.167c.24.645.862,1.306,1.619,1.012.87-.338.94-1.693.932-2.467a2.969,2.969,0,0,0-.453-1.818,2.543,2.543,0,0,1,1.753.515c.118.09.239-.078.185-.185A2.307,2.307,0,0,0,122.463,115.181Z" transform="translate(-92.341 -90.205)" fill="#011109" stroke="#011109" stroke-width="0.5"/>
              <path id="Path_172" data-name="Path 172" d="M99.374,205.639c-.054-.825-.1-1.647-.159-2.471h0q-.057-.927-.131-1.85a16.489,16.489,0,0,0-.563-4.38.21.21,0,0,0-.4,0,14.524,14.524,0,0,0-.152,4.2c.016.667.044,1.334.074,2l-19.1-.188-7.465-.087q.119-1.12.232-2.243c.132-1.321.548-3.044.145-4.331a.309.309,0,0,0-.558-.072c-.625,1.127-.584,2.789-.723,4.05q-.142,1.275-.277,2.552c-.069.625-.136,1.248-.207,1.874q-.3,2.721-.645,5.438-.237,1.883-.5,3.764c-.1.765,1.064,1.1,1.17.324q.275-1.984.52-3.97c5.3.4,26.636-.181,27.821-.342.118,1.58.257,3.158.438,4.731.076.672,1.116.707,1.078,0-.085-1.645-.2-3.287-.315-4.931C99.564,208.348,99.465,206.995,99.374,205.639Z" transform="translate(-61.607 -137.646)" fill="#011109" stroke="#011109" stroke-width="0.5"/>
            </g>
          </g>
          <g id="Group_88" data-name="Group 88" transform="translate(550.184 228.339)">
            <g id="Group_79" data-name="Group 79" transform="translate(0 0)">
              <path id="Path_199" data-name="Path 199" d="M383.234,336.729c-.736-3.711-1.452-7.43-2.221-11.132-.37-1.776-.766-3.547-1.258-5.288-.4-1.4-.74-3.1-1.746-4.211a12.022,12.022,0,0,0-3.976-2.314c-1.544-.711-3.113-1.38-4.645-2.125a24.926,24.926,0,0,1-4.161-2.322,1.374,1.374,0,0,1-.694-1.338c-.013-.454-.013-.909-.021-1.363-.013-.812-.043-1.624-.08-2.436a21.224,21.224,0,0,0,2.486-1.363,21.44,21.44,0,0,0,2.423-1.8c1.485-1.275,2.828-2.567,3.042-4.59.038-.353.072-.711.109-1.064a2.13,2.13,0,0,0,.463-.021,3.464,3.464,0,0,0-.252,1.716c.143.963.711,1.847.774,2.823.072.992-.618,1.569-1.127,2.322a3.534,3.534,0,0,0-.328.61,3.028,3.028,0,0,0-.24,1.308,5.3,5.3,0,0,0,.257,1.165,2.177,2.177,0,0,1-.093,1.573,2,2,0,0,0,0,1.931,1.1,1.1,0,0,0,1.456.4c.483-.236.189-.875-.249-.921-.664-.063.131-1.851.148-2.137a5.21,5.21,0,0,0-.341-1.59,2.083,2.083,0,0,1,.349-1.725,13.079,13.079,0,0,0,1.018-1.519,3.861,3.861,0,0,0-.168-3.046,5.4,5.4,0,0,1-.5-1.872,4.685,4.685,0,0,1,.48-1.418,6.088,6.088,0,0,0,1.7-1.224,5.326,5.326,0,0,0,1.43-4.068,5.362,5.362,0,0,0,3.231-2.861,4.064,4.064,0,0,0-.374-3.849,7.046,7.046,0,0,0-2.676-10.723,6.508,6.508,0,0,0-.438-6.021,12.962,12.962,0,0,0-5.141-4.594,16.045,16.045,0,0,0-14.347-.046,10.2,10.2,0,0,0-3.715-.812,20.9,20.9,0,0,0-4.438.1,14.128,14.128,0,0,0-7.312,3.088,9.629,9.629,0,0,0-2.024,12.705c-1.183.421-1.893,2.2-1.961,3.294a5.217,5.217,0,0,0,2.007,3.984,3.024,3.024,0,0,0,.164,4.956c-.674,1.472.265,3.458,1.965,3.332-.009,1.325,1.868,2.305,2.528,3.227a2.825,2.825,0,0,1,.177,2.991,5.315,5.315,0,0,0-.972,2.1,2.594,2.594,0,0,0,.765,1.826c.131.151.278.3.412.45a1.717,1.717,0,0,1,.442.757c.131.572-.311.892-.618,1.334a2.318,2.318,0,0,0,.77,3.332.544.544,0,0,0,.551-.938c-.976-.606-.622-1.46-.072-2.2a2.017,2.017,0,0,0,.5-1.616,2.054,2.054,0,0,0-.249-.665,6.189,6.189,0,0,0-.782-1.014,1.636,1.636,0,0,1-.606-1.376,4.433,4.433,0,0,1,.648-1.2,3.952,3.952,0,0,0,.185-3.858c-.021-.042-.046-.079-.067-.118a5.179,5.179,0,0,0,1.384.16c.017.416.029.833.042,1.246a5.192,5.192,0,0,0,.682,2.756,11.907,11.907,0,0,0,3.816,3.408c.21.131.425.253.631.37a16.921,16.921,0,0,0,2.238,1.048c-.038.8-.063,1.586-.076,2.381-.008.454-.012.909-.025,1.363a1.375,1.375,0,0,1-.694,1.338,24.983,24.983,0,0,1-4.161,2.322c-1.532.745-3.1,1.414-4.645,2.125a11.957,11.957,0,0,0-3.971,2.314c-1.009,1.111-1.355,2.81-1.75,4.211-.492,1.742-.887,3.513-1.258,5.288-.766,3.7-1.481,7.421-2.221,11.132-.135.69.917.984,1.056.294.745-3.774,1.468-7.547,2.238-11.313.374-1.834.783-3.66,1.3-5.461a15.843,15.843,0,0,1,.892-2.655,3.9,3.9,0,0,1,1.843-1.716c.295-.156.593-.3.892-.45a11.358,11.358,0,0,1,.618,3.942,5.156,5.156,0,0,0,.126,1.906,1.575,1.575,0,0,0,1.031.7c3.05,1.123,6.378.871,9.567.85a145.668,145.668,0,0,0,19.769-1.01.515.515,0,0,0,.378-.5,25.972,25.972,0,0,1,.387-5.448s.009,0,.013,0a3.9,3.9,0,0,1,1.843,1.717,15.467,15.467,0,0,1,.892,2.655c.517,1.8.921,3.627,1.3,5.461.77,3.765,1.493,7.539,2.242,11.313C382.317,337.714,383.373,337.419,383.234,336.729Zm-6.93-46.236a4.372,4.372,0,0,1-1.569,2.949,4.448,4.448,0,0,1-1.6.816,5.152,5.152,0,0,1-.535.109q.341-3.383.635-6.782a2.014,2.014,0,0,1,1.742-.093A2.945,2.945,0,0,1,376.3,290.493Zm-33.21-.109a3.269,3.269,0,0,1,1.106-2.819,1.907,1.907,0,0,1,1.628-.32,2.558,2.558,0,0,1,1.14.85q.076,2.385.151,4.779c.012.483.029.963.042,1.447A4.2,4.2,0,0,1,343.095,290.384Zm2.654-13.585a.542.542,0,0,0-.378.917,2.49,2.49,0,0,0,1.485.5,37.6,37.6,0,0,0,.029,7.051c.013.492.029.98.046,1.472a2.372,2.372,0,0,0-2.158-.686,3.728,3.728,0,0,0-2.823,3.151,5.13,5.13,0,0,0-.026,1.738,1.054,1.054,0,0,1-.412-1.838.6.6,0,0,0-.261-.993,1.83,1.83,0,0,1,0-3.454.614.614,0,0,0,.269-1.014c-1.039-.913-2.242-1.943-2.293-3.437a3.357,3.357,0,0,1,.45-1.8,7.181,7.181,0,0,1,.867-1.009c.5.53,1.313-.32.837-.93-3-3.841-1.8-9.062,1.9-11.923a13.8,13.8,0,0,1,6.378-2.575,24.533,24.533,0,0,1,3.808-.244,19.121,19.121,0,0,1,3.731.21.349.349,0,0,0,.438.37c4.258-1.372,8.81-1.91,13.008-.017,3.741,1.683,7.813,5.608,5.57,9.979a.568.568,0,0,0,.332.82,5.906,5.906,0,0,1,2.44,9.47.589.589,0,0,0,0,.812c1.666,1.939-.051,4.324-1.994,5.132a3.108,3.108,0,0,0-2.032-2.015,2.855,2.855,0,0,0-1.641.105c.189-2.292.362-4.585.5-6.874a4.508,4.508,0,0,0,.682-.072c.711-.13.483-1.148-.16-1.195a6.5,6.5,0,0,1-4.485-1.649c-1.111-1.094-1.393-2.764-2.6-3.757-2.557-2.1-7.429.732-8.809-2.928-.1-.253-.5-.311-.568,0a1.889,1.889,0,0,0,0,.812,3.968,3.968,0,0,1-1.775,2.449c-1.308.652-2.844-.08-4.215.316a5.614,5.614,0,0,0-2.465,2.095,3.24,3.24,0,0,1-1.683,1.132A6.49,6.49,0,0,1,345.749,276.8Zm1.767,1.384a4.094,4.094,0,0,0,1.78-.711c1.291-.938,1.8-2.785,3.6-2.911,1.456-.1,2.907.286,4.1-.791a4.046,4.046,0,0,0,1.165-2.15,3.769,3.769,0,0,0,2.045,1.485c1.969.589,4.539-.522,6.264.846a8.106,8.106,0,0,1,1.519,2.424,6.862,6.862,0,0,0,1.687,1.864,7.219,7.219,0,0,0,3.172,1.409c-.2,1.776-.366,3.551-.517,5.33a40.326,40.326,0,0,0-4.447-.181c-.783.008-1.561.034-2.343.063a10.359,10.359,0,0,0-2.112.126c-.732.189-.9.77-.888,1.4a8.181,8.181,0,0,0-2.427-.382,10.431,10.431,0,0,0-2.108.164,1.146,1.146,0,0,0-.884-1.178,10.427,10.427,0,0,0-2.116-.126c-.778-.029-1.561-.055-2.343-.063a39.433,39.433,0,0,0-4.729.21A34.861,34.861,0,0,0,347.516,278.183Zm6.471,24.653c-.1-.042-.194-.088-.29-.135a13.745,13.745,0,0,1-4.594-3.458,4.489,4.489,0,0,1-.808-2.932c-.034-1.144-.072-2.293-.11-3.437-.051-1.7-.109-3.4-.164-5.1a5.9,5.9,0,0,0,2.722,3.963,4.786,4.786,0,0,0,5.9-1.384,6.282,6.282,0,0,0,1.262-2.974h0a12.041,12.041,0,0,1,1.906-.185,7.066,7.066,0,0,1,2.894.576,6.1,6.1,0,0,0,1.186,2.584,4.787,4.787,0,0,0,5.9,1.384,5.109,5.109,0,0,0,2.163-2.381c-.1,1.186-.194,2.369-.3,3.55-.093,1.081-.172,2.167-.282,3.244a4.238,4.238,0,0,1-1.355,2.81,20.915,20.915,0,0,1-4.535,3.5c-.232.131-.463.261-.694.383a9.985,9.985,0,0,1-5.385,1.418A15.136,15.136,0,0,1,353.987,302.837Zm20.467,18.036a124.594,124.594,0,0,1-13.45.517,4.665,4.665,0,0,1,.53-.934c.387-.551,1.153-.972,1.393-1.59a.153.153,0,0,0-.1-.181c-.749-.181-1.594.682-2.024,1.207a5.424,5.424,0,0,0-.841,1.405,6.623,6.623,0,0,0-1.308-1.914,3.716,3.716,0,0,0-2.36-1.334.227.227,0,0,0-.16.383,10.908,10.908,0,0,0,1.144.947,6.026,6.026,0,0,1,1.01,1.111,9.47,9.47,0,0,1,.471.909c-.9.008-1.788.013-2.675.029-3.1.05-6.277.328-9.323-.392-.156-.038-.888-.1-.984-.252-.139-.206-.034-.833-.043-1.081-.025-.665-.079-1.325-.168-1.982a6.646,6.646,0,0,0-.732-2.684c2.453-1.148,4.99-2.116,7.358-3.441a23.276,23.276,0,0,0,2.149-1.355,2.3,2.3,0,0,0,1.115-1.275,10.522,10.522,0,0,0,.046-2.331c0-.694-.013-1.384-.034-2.078a16.069,16.069,0,0,0,2.621.619,10.222,10.222,0,0,0,5.482-.6c-.021.686-.034,1.372-.034,2.061a10.522,10.522,0,0,0,.046,2.331,2.321,2.321,0,0,0,1.114,1.275,23.487,23.487,0,0,0,2.15,1.355c2.545,1.426,5.293,2.436,7.909,3.7A25.577,25.577,0,0,0,374.454,320.872Z" transform="translate(-335.792 -259.925)" fill="#011109" stroke="#011109" stroke-width="0.5"/>
              <path id="Path_200" data-name="Path 200" d="M383.713,284.939c1.666,1.939-.05,4.324-1.994,5.132a3.108,3.108,0,0,0-2.032-2.015,2.855,2.855,0,0,0-1.641.105c.189-2.292.362-4.585.5-6.874a4.507,4.507,0,0,0,.682-.072c.711-.13.483-1.148-.16-1.195a6.5,6.5,0,0,1-4.485-1.649c-1.111-1.094-1.393-2.764-2.6-3.757-2.557-2.1-7.429.732-8.809-2.928-.1-.253-.5-.311-.568,0a1.889,1.889,0,0,0,0,.812,3.968,3.968,0,0,1-1.775,2.449c-1.308.652-2.844-.08-4.215.316a5.614,5.614,0,0,0-2.465,2.095,3.24,3.24,0,0,1-1.683,1.132,6.46,6.46,0,0,1-1.99-.122.542.542,0,0,0-.378.917,2.489,2.489,0,0,0,1.485.5,37.6,37.6,0,0,0,.029,7.051c.013.492.029.98.046,1.472a2.372,2.372,0,0,0-2.158-.686,3.728,3.728,0,0,0-2.823,3.151,5.128,5.128,0,0,0-.026,1.738,1.055,1.055,0,0,1-.412-1.839.6.6,0,0,0-.261-.993,1.83,1.83,0,0,1,0-3.454.614.614,0,0,0,.269-1.014c-1.039-.913-2.242-1.943-2.293-3.437a3.356,3.356,0,0,1,.45-1.8,7.177,7.177,0,0,1,.867-1.009c.5.53,1.313-.32.837-.93-3-3.841-1.8-9.062,1.9-11.923a13.8,13.8,0,0,1,6.378-2.575,24.532,24.532,0,0,1,3.808-.244,19.116,19.116,0,0,1,3.731.21.349.349,0,0,0,.438.37c4.258-1.372,8.81-1.91,13.008-.017,3.741,1.683,7.813,5.608,5.57,9.979a.568.568,0,0,0,.332.82,5.906,5.906,0,0,1,2.44,9.47A.59.59,0,0,0,383.713,284.939Z" transform="translate(-340.52 -261.493)" fill="#011109" stroke="#011109" stroke-width="0.5"/>
              <path id="Path_201" data-name="Path 201" d="M372.873,309.186a4.523,4.523,0,0,0-3.35-.619c-.785.114-2.415.5-2.5,1.464a.172.172,0,0,0,.125.165.9.9,0,0,0,.693-.118,6.322,6.322,0,0,1,1.609-.529,7.011,7.011,0,0,1,2.936.475C372.831,310.127,373.289,309.522,372.873,309.186Z" transform="translate(-353.882 -288.062)" fill="#011109" stroke="#011109" stroke-width="0.5"/>
              <path id="Path_202" data-name="Path 202" d="M403.534,310.2a.9.9,0,0,0,.693-.118,6.32,6.32,0,0,1,1.609-.529,7.012,7.012,0,0,1,2.937.475c.446.1.9-.5.488-.838a4.523,4.523,0,0,0-3.351-.619c-.785.114-2.414.5-2.5,1.464A.173.173,0,0,0,403.534,310.2Z" transform="translate(-374.961 -288.063)" fill="#011109" stroke="#011109" stroke-width="0.5"/>
              <path id="Path_203" data-name="Path 203" d="M392.069,330.378a16.72,16.72,0,0,0-.186-3.783.349.349,0,0,0-.667,0,16.738,16.738,0,0,0-.318,3.783C390.867,331.129,392.073,331.135,392.069,330.378Z" transform="translate(-367.714 -298.404)" fill="#011109" stroke="#011109" stroke-width="0.5"/>
              <path id="Path_204" data-name="Path 204" d="M391.274,341.777c.457-.554-.291-1.343-.8-.8-.722.761-1.521,1.576-2.667,1.424-1.088-.145-1.391-.99-1.991-1.734a.322.322,0,0,0-.535.141c-.313,1.287,1.016,2.462,2.161,2.72C389.009,343.878,390.318,342.934,391.274,341.777Z" transform="translate(-364.431 -306.64)" fill="#011109" stroke="#011109" stroke-width="0.5"/>
              <path id="Path_205" data-name="Path 205" d="M355.506,412.4a30.731,30.731,0,0,0-.6,6.182c-.118,2.154-.185,4.311-.273,6.467-.033.814,1.233.813,1.266,0,.088-2.155.2-4.311.254-6.467a30.686,30.686,0,0,0-.1-6.182C356,412.115,355.575,412.142,355.506,412.4Z" transform="translate(-346.707 -348.134)" fill="#011109" stroke="#011109" stroke-width="0.5"/>
              <path id="Path_206" data-name="Path 206" d="M429.2,415.159a7.06,7.06,0,0,0-.49-3,.221.221,0,0,0-.379,0,6.9,6.9,0,0,0-.259,2.817c-.006,1.143.02,2.287.026,3.43.015,2.288,0,4.574-.012,6.862a.6.6,0,0,0,1.206,0c.085-2.284.087-4.577.033-6.862C429.3,417.325,429.279,416.24,429.2,415.159Z" transform="translate(-389.241 -348.052)" fill="#011109" stroke="#011109" stroke-width="0.5"/>
            </g>
          </g>
        </g>
        <g id="Group_92" data-name="Group 92">
          <rect id="Rectangle_29" data-name="Rectangle 29" width="375" height="57" rx="28.5" transform="translate(186 1742)" fill="#4fcf8d"/>
          <text id="Create_your_Own_Now_" data-name="Create your Own Now! " transform="translate(214 1781)" font-size="28" font-family="AvenirLTStd-Black, Avenir LT Std" font-weight="800"><tspan x="0" y="0">Create your Own Now! </tspan></text>
        </g>
      </g>
    </g>
  </g>
</svg>
