<svg xmlns="http://www.w3.org/2000/svg" width="100" height="100" viewBox="0 0 100 100">
  <g id="upload" transform="translate(-517 -1307)">
    <circle id="Ellipse_10" data-name="Ellipse 10" cx="50" cy="50" r="50" transform="translate(517 1307)" fill="#e5f8ee"/>
    <g id="_2749148" data-name="2749148" transform="translate(531.091 1318.727)">
      <path id="Path_19" data-name="Path 19" d="M14.273,35.343A3.274,3.274,0,0,1,11,32.07V16.522a3.273,3.273,0,0,1,6.546,0V32.07A3.274,3.274,0,0,1,14.273,35.343Z" transform="translate(21.839 24.93)" fill="#4fcf8d"/>
      <path id="Path_20" data-name="Path 20" d="M44.224,15.748A16.832,16.832,0,0,0,30.2,8,17.132,17.132,0,0,0,14.286,19.554,11.183,11.183,0,0,0,5,30.789c0,6.294,4.835,11.395,10.8,11.395H16.8a7.9,7.9,0,0,1,1.116-9.165l7.212-7.608a7.1,7.1,0,0,1,10.182,0l7.2,7.6a7.9,7.9,0,0,1,1.156,9.085,12.974,12.974,0,0,0,11.745-13.2A13.009,13.009,0,0,0,44.224,15.748Z" transform="translate(5.909 8.273)" fill="#4fcf8d"/>
      <path id="Path_21" data-name="Path 21" d="M25.366,26.093H12.274a3.272,3.272,0,0,1-2.314-5.587l6.546-6.546a3.27,3.27,0,0,1,4.628,0l6.546,6.546a3.272,3.272,0,0,1-2.314,5.587Z" transform="translate(17.293 22.592)" fill="#4fcf8d"/>
    </g>
  </g>
</svg>
